<?xml version="1.0" ?><svg height="512" viewBox="0 0 512 512" width="512" xmlns="http://www.w3.org/2000/svg"><g><g><circle cx="96" cy="88" fill="#fac8b2" r="64"/><path d="M76,108a16.971,16.971,0,0,1,24-24l12,12,39.63-39.63a64,64,0,1,0-87.26,87.26L88,120Z" fill="#f98800"/><path d="M64,152a8,8,0,0,1-5.657-13.657L76.687,120l-6.344-6.343a24.971,24.971,0,0,1,35.314-35.314L112,84.687l50.343-50.344a8,8,0,0,1,11.314,11.314l-56,56a8,8,0,0,1-11.314,0l-12-12a8.97,8.97,0,0,0-12.686,12.686l12,12a8,8,0,0,1,0,11.314l-24,24A7.974,7.974,0,0,1,64,152Z" fill="#f98800"/><g><path d="M56,368a24,24,0,0,0-24,24v16h72V368Z" fill="#d1e1e5"/><polygon fill="#fac8b2" points="56 216 24 216 24 272 56 272 56 248 56 216"/><path d="M104,408h72V392a24,24,0,0,0-24-24H104Z" fill="#d1e1e5"/><path d="M56,152a32,32,0,0,0-32,32v32H56v32h96V184h24V152Z" fill="#00a8e7"/><polygon fill="#2c3f51" points="56 272 56 280 56 368 104 368 104 272 104 368 152 368 152 248 56 248 56 272"/><path d="M240,128h0a16,16,0,0,0-16,16v8H176v32h64a16,16,0,0,0,16-16c0-7.524,0-16.474,0-24A16,16,0,0,0,240,128Z" fill="#fac8b2"/></g><path d="M112,368H96V296a8,8,0,0,1,8-8h0a8,8,0,0,1,8,8Z" fill="#212e3a"/><rect fill="#7f8b8c" height="40" width="16" x="96" y="368"/><rect fill="#088faf" height="16" width="64" x="88" y="232"/><rect fill="#eaaa94" height="32" width="16" x="168" y="152"/><rect fill="#212e3a" height="16" rx="8" width="32" x="56" y="360"/><rect fill="#212e3a" height="16" rx="8" width="32" x="120" y="360"/><rect fill="#088faf" height="64" width="16" x="56" y="184"/><rect fill="#eaaa94" height="16" width="32" x="24" y="208"/></g><g><path d="M208,336H187.314l10.343-10.343a8,8,0,0,0-11.314-11.315l-24,24a8,8,0,0,0,0,11.315l24,24A7.979,7.979,0,0,0,192,376c6.955.114,10.722-8.731,5.657-13.658L187.314,352H208C218.6,351.608,218.6,336.39,208,336Z" fill="#e92949"/><path d="M272,336H240c-10.592.388-10.6,15.606,0,16h32C282.592,351.611,282.605,336.393,272,336Z" fill="#e92949"/><path d="M350.181,349.078a8.03,8.03,0,0,0,.236-9.841,7.527,7.527,0,0,0-.76-.894l-24-24a8,8,0,0,0-11.314,11.314L324.686,336H304a8,8,0,0,0,0,16h20.687l-10.344,10.343c-7.227,7.743,3.564,18.544,11.314,11.314l24-24C349.833,349.464,350.009,349.275,350.181,349.078Z" fill="#e92949"/></g><g><circle cx="408" cy="88" fill="#fac8b2" r="64"/><g><rect fill="#fac8b2" height="48" width="96" x="360" y="320"/><path d="M360,368a24,24,0,0,0-24,24v16H480V392a24,24,0,0,0-24-24H360Z" fill="#d1e1e5"/><path d="M488,184a32,32,0,0,0-32-32H360a32,32,0,0,0-32,32v64h32l-16,72H472l-14.873-71.793L488,248Z" fill="#fd918c"/></g><rect fill="#eaaa94" height="48" width="16" x="400" y="320"/><rect fill="#7f8b8c" height="40" width="16" x="400" y="368"/><path d="M472,88v32.353A31.647,31.647,0,0,1,440.353,152H440V112L376,88l-.255,63.9h0A31.648,31.648,0,0,1,344,120.255V88h0a64,64,0,0,1,64-64h0a64,64,0,0,1,64,64Z" fill="#8e4b19"/><rect fill="#2c3f51" height="64" width="32" x="392" y="184"/><polygon fill="#fac8b2" points="328 184 328 248 408 248 407.998 216 359.999 216 360 184 328 184"/><polygon fill="#fac8b2" points="488 184 488 248 408 248 407.998 216 456.001 216 456 184 488 184"/><path d="M384,376H360a8,8,0,0,1,0-16h24a8,8,0,0,1,0,16Z" fill="#eaaa94"/><path d="M456,376H432a8,8,0,0,1,0-16h24a8,8,0,0,1,0,16Z" fill="#eaaa94"/><rect fill="#eaaa94" height="16" width="32" x="456" y="184"/><rect fill="#eaaa94" height="16" width="32" x="328" y="184"/><rect fill="#eaaa94" height="32" width="16" x="400" y="216"/></g><g><path d="M152,448a23.889,23.889,0,0,0-8,1.376V440a8,8,0,0,1,16,0,8,8,0,0,0,16,0,24,24,0,0,0-48,0v32a24,24,0,1,0,24-24Zm0,32a8,8,0,1,1,8-8A8.009,8.009,0,0,1,152,480Z" fill="#2c3f51"/><g><path d="M224,448a8,8,0,0,0,0-16H200a8,8,0,0,0-8,8v48a8,8,0,0,0,16,0V472h16a8,8,0,0,0,0-16H208v-8Z" fill="#2c3f51"/><path d="M272,448a8,8,0,0,0,0-16H248a8,8,0,0,0-8,8v48a8,8,0,0,0,8,8h24a8,8,0,0,0,0-16H256v-8h16a8,8,0,0,0,0-16H256v-8Z" fill="#2c3f51"/><path d="M320,448a8,8,0,0,0,0-16H296a8,8,0,0,0-8,8v48a8,8,0,0,0,8,8h24a8,8,0,0,0,0-16H304v-8h16a8,8,0,0,0,0-16H304v-8Z" fill="#2c3f51"/><path d="M376,432H344a8,8,0,0,0,0,16h8v40a8,8,0,0,0,16,0V448h8a8,8,0,0,0,0-16Z" fill="#2c3f51"/></g></g><g><g><circle cx="336" cy="280" fill="#2c3f51" r="8"/><path d="M300,248a19.869,19.869,0,0,0-12,4.038,19.841,19.841,0,0,0-22.607-.963A15.9,15.9,0,0,0,256,248a8,8,0,0,0,0,16,8.1,8.1,0,0,0,.159,1.592A20.146,20.146,0,0,0,256,268v12a8,8,0,0,0,16,0V268a4,4,0,0,1,8,0v12a8,8,0,0,0,16,0V268a4,4,0,0,1,8,0v12a8,8,0,0,0,16,0V268A20.023,20.023,0,0,0,300,248Z" fill="#2c3f51"/></g><path d="M232,288H200a8,8,0,0,1-8-8V264a24.028,24.028,0,0,1,24-24,8,8,0,1,0-8-8,8,8,0,0,1-16,0,24,24,0,1,1,24,24,8.009,8.009,0,0,0-8,8v8h24a8,8,0,0,1,0,16Z" fill="#2c3f51"/></g></g></svg>