<?xml version="1.0" ?><svg viewBox="0 0 64 64" xmlns="http://www.w3.org/2000/svg"><title/><g id="Icons"><polygon points="43 5 43 8 40 6 43 5" style="fill:#3a85a0"/><path d="M43,63,39,41,37,31,8,1H33L47.338,9.961a6.008,6.008,0,0,1,2.391,2.859l2.842,7.107A5.99,5.99,0,0,1,53,22.155L57,63Z" style="fill:#f9cebb"/><polygon points="47 63 43 63 39 41 37 31 8 1 21.72 1 41 24.81 43 36.74 47 63" style="fill:#eabdad"/><path d="M38.47,33.9,27.01,63H13l7-28L5.16,25.63,1,23V1H8.99L9,1.01,22.38,11.1l11.35,8.56a8.03,8.03,0,0,1,2.6,3.37l2.08,5.09A7.8,7.8,0,0,1,38.47,33.9Z" style="fill:#ffd5c0"/><polygon points="27.4 62 27.01 63 13 63 20 35 5.16 25.63 1 23 1 1 4 1 4 21.35 8.16 24.03 23 33.55 16 62 27.4 62" style="fill:#f9cebb"/><polygon points="13.44 30.85 7 33 5.16 25.63 13.44 30.85" style="fill:#4889a0"/><polygon points="9 1 9 1.01 8.99 1 9 1" style="fill:#727172"/><path d="M63,44a1,1,0,0,1-.8-.4l-5.54-7.387-8.677,3.471a2,2,0,0,1-2.156-.442l-3.535-3.535a1,1,0,0,1,1.414-1.414l3.534,3.534,8.676-3.472a2,2,0,0,1,2.344.659L63.8,42.4A1,1,0,0,1,63,44Z" style="fill:#e77973"/><path d="M41,24a1,1,0,0,1-.856-1.515L45.78,13.09a2,2,0,0,1,2.108-.932L56.579,13.9,62.2,6.4a1,1,0,1,1,1.6,1.2l-5.622,7.5a2.01,2.01,0,0,1-1.992.761L47.5,14.119l-5.637,9.4A1,1,0,0,1,41,24Z" style="fill:#e77973"/><path d="M48.667,30H43a1,1,0,0,1,0-2h5.667l7.167-5.375a2,2,0,0,1,2.31-.064l5.411,3.607a1,1,0,0,1-1.109,1.664l-5.411-3.607L49.867,29.6A2.008,2.008,0,0,1,48.667,30Z" style="fill:#e77973"/><polygon points="24 12 43 5 38 1 13 1 24 12" style="fill:#4889a0"/><path d="M31,35.5a.5.5,0,0,1-.448-.276l-2-4A.5.5,0,0,1,28.5,31V29a.5.5,0,0,1,1,0v1.882l1.948,3.894A.5.5,0,0,1,31,35.5Z" style="fill:#eabdad"/><polygon points="9 1 9 1.01 8.99 1 9 1" style="fill:#727172"/><polygon points="25 9 25 13 22 11 25 9" style="fill:#3a85a0"/><polygon points="25 9 22.38 11.1 15.3 16.76 5 25 5.16 25.63 7 33 1 29 1 1 15 1 25 9" style="fill:#5d99af"/></g></svg>