<?xml version="1.0" ?><svg viewBox="0 0 64 64" xmlns="http://www.w3.org/2000/svg"><title/><g id="Icons"><path d="M32,5V45H31A14,14,0,0,1,17,31V19c0-.11,0-.23.01-.34A14,14,0,0,1,31,5Z" style="fill:#ffd5c0"/><path d="M32,5v.04A13.97,13.97,0,0,0,19.03,18.28c-.6.12-1.19.24-1.76.34-.09.02-.18.03-.26.04A14,14,0,0,1,31,5Z" style="fill:#ffe0d2"/><path d="M26.98,43.64A13.916,13.916,0,0,0,32,44.96V45H31A14,14,0,0,1,17,31V20.67c.09-.02.18-.03.27-.05.56-.1,1.14-.21,1.73-.34V31A13.991,13.991,0,0,0,26.98,43.64Z" style="fill:#ffe0d2"/><path d="M47,19V31A13.986,13.986,0,0,1,33,45H32V5h1A14.008,14.008,0,0,1,46.93,17.59,13.052,13.052,0,0,1,47,19Z" style="fill:#f9cebb"/><path d="M41.32,9.54A13.97,13.97,0,0,0,32,5.04V5h1A14,14,0,0,1,46.92,17.58c-.07-.05-.12-.1-.19-.15a12.241,12.241,0,0,1-2.3-2.37.01.01,0,0,1-.01-.01,13.9,13.9,0,0,0-3.1-5.51Z" style="fill:#f2c8b6"/><path d="M47,19.64V31A14,14,0,0,1,33,45H32v-.04A13.985,13.985,0,0,0,45,31V19c0-.11,0-.23-.01-.34-.01-.32-.03-.65-.06-.96a12.535,12.535,0,0,0,1.8,1.73C46.82,19.5,46.9,19.57,47,19.64Z" style="fill:#f2c8b6"/><path d="M19.03,18.28c-.01.12-.02.25-.02.38-.01.11-.01.23-.01.34v1.28c-.59.13-1.17.24-1.73.34-.09.02-.18.03-.27.05V19c0-.11,0-.23.01-.34.08-.01.17-.02.26-.04C17.84,18.52,18.43,18.4,19.03,18.28Z" style="fill:#f4cfc1"/><path d="M32,14.29v2c-1.42.59-2.93,1.17-4.53,1.71A70.382,70.382,0,0,1,19,20.28V19c0-.11,0-.23.01-.34,0-.13.01-.26.02-.38A70.009,70.009,0,0,0,27.47,16C29.07,15.46,30.58,14.88,32,14.29Z" style="fill:#f2c8b6"/><path d="M47,19v.64c-.1-.07-.18-.14-.27-.21a12.535,12.535,0,0,1-1.8-1.73,13.538,13.538,0,0,0-.5-2.64,12.241,12.241,0,0,0,2.3,2.37c.07.05.12.1.19.15.01.08.02.17.03.26a1.948,1.948,0,0,1,.02.25c.01.19.02.38.02.57C47,18.77,47,18.89,47,19Z" style="fill:#ddb3a6"/><path d="M44.43,15.06a13.538,13.538,0,0,1,.5,2.64,8.243,8.243,0,0,1-1.6-2.7s-.08-.23-1.13-4A67.745,67.745,0,0,1,32,16.29v-2a67.214,67.214,0,0,0,9.32-4.75c.3-.18.6-.36.88-.54.36,1.29.61,2.17.78,2.76.32,1.14.35,1.24.35,1.24a7.635,7.635,0,0,0,1.09,2.05A.01.01,0,0,0,44.43,15.06Z" style="fill:#eabdad"/><path d="M46.93,17.59a1.948,1.948,0,0,1,.02.25c-.01-.09-.02-.18-.03-.26Z" style="fill:#eabdad"/><path d="M24.65,50.58h-.01c-.11-.21-.21-.43-.31-.65C24.43,50.15,24.54,50.37,24.65,50.58Z" style="fill:#febd73"/><path d="M17,23v7H16a2.772,2.772,0,0,1-1-.18A2.968,2.968,0,0,1,13,27V24a1,1,0,0,1,1-1Z" style="fill:#ffe0d2"/><path d="M17,23v7a2.772,2.772,0,0,1-1-.18A2.968,2.968,0,0,1,14,27V24a1,1,0,0,1,1-1Z" style="fill:#ffd5c0"/><path d="M17,29a1.753,1.753,0,0,1-.638-.113A1.986,1.986,0,0,1,15,27V24h2Z" style="fill:#f9c9b4"/><path d="M47,23v7h1a2.772,2.772,0,0,0,1-.18A2.968,2.968,0,0,0,51,27V24a1,1,0,0,0-1-1Z" style="fill:#ffd5c0"/><path d="M47,23v7a2.772,2.772,0,0,0,1-.18A2.968,2.968,0,0,0,50,27V24a1,1,0,0,0-1-1Z" style="fill:#f9cebb"/><path d="M47,29a1.758,1.758,0,0,0,.639-.113A1.985,1.985,0,0,0,49,27V24H47Z" style="fill:#f4b89a"/><path d="M32,39.5V38.29l-1.65-1.64a.483.483,0,0,0-.7,0L28,38.29l-1.65-1.64a.495.495,0,0,0-.7.7l2,2a.483.483,0,0,0,.7,0L30,37.71l1.65,1.64A.469.469,0,0,0,32,39.5Z" style="fill:#484749"/><path d="M38.35,36.65a.483.483,0,0,0-.7,0L36,38.29l-1.65-1.64a.483.483,0,0,0-.7,0L32,38.29V39.5a.469.469,0,0,0,.35-.15L34,37.71l1.65,1.64a.483.483,0,0,0,.7,0l2-2A.483.483,0,0,0,38.35,36.65Z" style="fill:#414043"/><path d="M25,27.5a.5.5,0,0,1-.353-.854L27.793,23.5H23a.5.5,0,0,1,0-1h6a.5.5,0,0,1,.354.854l-4,4A.5.5,0,0,1,25,27.5Z" style="fill:#484749"/><path d="M39,27.5a.5.5,0,0,1-.353-.146l-4-4A.5.5,0,0,1,35,22.5h6a.5.5,0,0,1,0,1H36.207l3.147,3.146A.5.5,0,0,1,39,27.5Z" style="fill:#414043"/><path d="M1,48a1,1,0,0,1-.893-1.447l1.553-3.106a2,2,0,0,1,2.683-.894l.316.157,1.213-1.819A2,2,0,0,1,7.536,40H11a1,1,0,0,1,0,2H7.536L6.322,43.82a2,2,0,0,1-2.558.68l-.316-.158L1.9,47.447A1,1,0,0,1,1,48Z" style="fill:#5d99af"/><path d="M9,28a1,1,0,0,1-.895-.553L7,25.236a3,3,0,0,1,1.342-4.025L8.764,21a1,1,0,0,0,.447-1.342l-.461-.921a3,3,0,0,1,.563-3.464l.394-.394A1,1,0,0,0,10,14.171V11a1,1,0,0,1,2,0v3.171a2.978,2.978,0,0,1-.879,2.122l-.394.395a1,1,0,0,0-.188,1.155l.461.921a3,3,0,0,1-1.341,4.025L9.237,23a1,1,0,0,0-.448,1.342L9.9,26.553A1,1,0,0,1,9,28Z" style="fill:#5d99af"/><path d="M63,48a1,1,0,0,1-.895-.553l-1.553-3.105-.316.158a2,2,0,0,1-2.558-.68L56.465,42H53a1,1,0,0,1,0-2h3.465a1.993,1.993,0,0,1,1.664.891l1.214,1.82.316-.158a2,2,0,0,1,2.683.894L63.9,46.553A1,1,0,0,1,63,48Z" style="fill:#4889a0"/><path d="M55,28a1,1,0,0,1-.893-1.447l1.1-2.211A1,1,0,0,0,54.764,23l-.422-.211A3,3,0,0,1,53,18.764l.461-.922a1,1,0,0,0-.187-1.154l-.4-.395A2.978,2.978,0,0,1,52,14.171V11a1,1,0,0,1,2,0v3.171a1,1,0,0,0,.293.708l.4.394a3,3,0,0,1,.562,3.463l-.461.922A1,1,0,0,0,55.237,21l.422.211A3,3,0,0,1,57,25.236l-1.1,2.211A1,1,0,0,1,55,28Z" style="fill:#4889a0"/><path d="M32,45V55a8.356,8.356,0,0,1-7.16-4.07,37.209,37.209,0,0,0,1.67-6.68,12.924,12.924,0,0,0,2.49.6A13.168,13.168,0,0,0,31,45Z" style="fill:#ffd5c0"/><path d="M25.93,47.22a35.571,35.571,0,0,1-1.09,3.71A8.121,8.121,0,0,1,24,49c.14-.78.29-1.55.43-2.33A15.816,15.816,0,0,0,25.93,47.22Z" style="fill:#ffe0d2"/><path d="M40,49a8.346,8.346,0,0,1-8,6V45h1a13.168,13.168,0,0,0,2-.15,13.742,13.742,0,0,0,4.03-1.21c.18,1.01.36,2.02.55,3.03C39.72,47.45,39.86,48.22,40,49Z" style="fill:#f9cebb"/><path d="M26.51,44.25c-.17,1.08-.37,2.07-.58,2.97a15.816,15.816,0,0,1-1.5-.55c.18-1.01.36-2.02.55-3.03a10.254,10.254,0,0,0,.96.41A4.3,4.3,0,0,0,26.51,44.25Z" style="fill:#f4cfc3"/><path d="M32,45v3H31a16.647,16.647,0,0,1-2-.12,16.155,16.155,0,0,1-3.07-.66c.21-.9.41-1.89.58-2.97a12.924,12.924,0,0,0,2.49.6A13.168,13.168,0,0,0,31,45Z" style="fill:#f2c8b6"/><path d="M39.58,46.67A17.033,17.033,0,0,1,33,48H32V45h1a13.168,13.168,0,0,0,2-.15,13.742,13.742,0,0,0,4.03-1.21C39.21,44.65,39.39,45.66,39.58,46.67Z" style="fill:#eabdad"/><path d="M38.07,47.22a35.571,35.571,0,0,0,1.09,3.71A8.121,8.121,0,0,0,40,49c-.14-.78-.29-1.55-.43-2.33A15.816,15.816,0,0,1,38.07,47.22Z" style="fill:#f2c8b6"/><path d="M37.49,44.25c.17,1.08.37,2.07.58,2.97a15.816,15.816,0,0,0,1.5-.55c-.18-1.01-.36-2.02-.55-3.03a10.254,10.254,0,0,1-.96.41A4.3,4.3,0,0,1,37.49,44.25Z" style="fill:#e5b6a8"/><path d="M34.73,31.56,33.87,27H31.63l-.86,4.56A1.179,1.179,0,0,0,31.87,33h1.76A1.179,1.179,0,0,0,34.73,31.56Z" style="fill:#eabdad"/><path d="M32,55v8H1c.07-.98-.02-12.69,5.16-16.14A12.037,12.037,0,0,1,8.94,45.5a5.965,5.965,0,0,1,3.62-.02q4.275,1.305,8.55,2.63c.96.3,1.93.59,2.89.89a8.317,8.317,0,0,0,5,5.43A8.2,8.2,0,0,0,32,55Z" style="fill:#febd73"/><path d="M20.92,49.15l.09.31-6.45-1.98a5.965,5.965,0,0,0-3.62.02,12.037,12.037,0,0,0-2.78,1.36C4.12,51.55,3.29,59.27,3.08,63H1c.07-.98-.02-12.69,5.16-16.14A12.037,12.037,0,0,1,8.94,45.5a5.965,5.965,0,0,1,3.62-.02q4.275,1.305,8.55,2.63Z" style="fill:#fedc96"/><path d="M63,63H32V55a8.2,8.2,0,0,0,3-.57A8.317,8.317,0,0,0,40,49c.96-.3,1.93-.59,2.89-.89q4.275-1.32,8.55-2.63a5.965,5.965,0,0,1,3.62.02,12.037,12.037,0,0,1,2.78,1.36C63.02,50.31,62.93,62.02,63,63Z" style="fill:#fab06b"/><path d="M24.64,50.58c-.51-.15-1.02-.31-1.53-.47-.7-.22-1.4-.43-2.1-.65l-.09-.31.19-1.04c.96.3,1.93.59,2.89.89a7.321,7.321,0,0,0,.33.93C24.43,50.15,24.53,50.37,24.64,50.58Z" style="fill:#f9ba85"/><path d="M32,55v3a10.711,10.711,0,0,1-3-.42,11.364,11.364,0,0,1-7.88-7.74l-.11-.38c.7.22,1.4.43,2.1.65.51.16,1.02.32,1.53.47h.01A8.387,8.387,0,0,0,32,55Z" style="fill:#fab06b"/><path d="M43.08,49.16l-.2.68A11.364,11.364,0,0,1,35,57.58,10.711,10.711,0,0,1,32,58V55a8.2,8.2,0,0,0,3-.57A8.317,8.317,0,0,0,40,49c.96-.3,1.93-.59,2.89-.89Z" style="fill:#fc8e52"/><path d="M15.5,59v4h-1V59a.5.5,0,0,1,1,0Z" style="fill:#fab06b"/><path d="M47.5,59v4h-1V59a.5.5,0,0,1,1,0Z" style="fill:#fc8e52"/><path d="M43.08,49.15l-.09.31,6.45-1.98a5.965,5.965,0,0,1,3.62.02,12.037,12.037,0,0,1,2.78,1.36c4.04,2.69,4.87,10.41,5.08,14.14H63c-.07-.98.02-12.69-5.16-16.14a12.037,12.037,0,0,0-2.78-1.36,5.965,5.965,0,0,0-3.62-.02q-4.275,1.305-8.55,2.63Z" style="fill:#fc8e52"/><path d="M39.36,50.58c.51-.15,1.02-.31,1.53-.47.7-.22,1.4-.43,2.1-.65l.09-.31-.19-1.04c-.96.3-1.93.59-2.89.89a7.321,7.321,0,0,1-.33.93C39.57,50.15,39.47,50.37,39.36,50.58Z" style="fill:#ed753a"/><path d="M32,27v6h-.88a1.179,1.179,0,0,1-1.1-1.44L30.88,27Z" style="fill:#f4b89a"/><path d="M32.88,33H32V27h1.12l.86,4.56A1.179,1.179,0,0,1,32.88,33Z" style="fill:#efb297"/><path d="M31.75,33h-.63a1.179,1.179,0,0,1-1.1-1.44L30.88,27h.63l-.86,4.56A1.179,1.179,0,0,0,31.75,33Z" style="fill:#f7c4ad"/><path d="M32.248,33h.63a1.179,1.179,0,0,0,1.1-1.44L33.118,27h-.63l.86,4.56A1.179,1.179,0,0,1,32.248,33Z" style="fill:#efae8e"/><path d="M32,32.5V33h-.25a1.085,1.085,0,0,1-.94-.55,1.059,1.059,0,0,0,.31.05Z" style="fill:#efb297"/><path d="M31.75,33h-.63a1.179,1.179,0,0,1-1.1-1.44,1.212,1.212,0,0,0,.79.89A1.085,1.085,0,0,0,31.75,33Z" style="fill:#f4b89a"/><path d="M32.88,33h-.63a1.085,1.085,0,0,0,.94-.55,1.212,1.212,0,0,0,.79-.89A1.179,1.179,0,0,1,32.88,33Z" style="fill:#eaa688"/><path d="M33.19,32.45a1.085,1.085,0,0,1-.94.55H32v-.5h.88A1.059,1.059,0,0,0,33.19,32.45Z" style="fill:#efae8e"/><path d="M19.03,18.28c-.01.12-.02.25-.02.38-.01.11-.01.23-.01.34v-.71A.037.037,0,0,1,19.03,18.28Z" style="fill:#f4cfc1"/><rect height="1" style="fill:#565556" width="2" x="45" y="22"/><path d="M47,19v.64c-.1-.07-.18-.14-.27-.21A12.588,12.588,0,0,1,45,17.78v-2a13.237,13.237,0,0,0,1.73,1.65c.07.05.12.1.19.15.01.08.02.17.03.26a1.948,1.948,0,0,1,.02.25c.01.19.02.38.02.57C47,18.77,47,18.89,47,19Z" style="fill:#484749"/><path d="M47,19.64v1.87H45V17.78a12.588,12.588,0,0,0,1.73,1.65C46.82,19.5,46.9,19.57,47,19.64Z" style="fill:#565556"/><rect height="1" style="fill:#666" width="2" x="17" y="22"/><path d="M17.27,20.62c.56-.1,1.14-.21,1.73-.34v1.23H17v-.84C17.09,20.65,17.18,20.64,17.27,20.62Z" style="fill:#666"/><path d="M19,18.29v1.99c-.59.13-1.17.24-1.73.34-.09.02-.18.03-.27.05V19c0-.11,0-.23.01-.34.08-.01.17-.02.26-.04C17.83,18.52,18.41,18.4,19,18.29Z" style="fill:#565556"/><path d="M32,1V14.29c-1.42.59-2.93,1.17-4.53,1.71a71.468,71.468,0,0,1-10.2,2.62c-.79.15-1.54.27-2.27.38V16C15,7.72,22.62,1,32,1Z" style="fill:#484749"/><path d="M32,1v.11C23.56,1.98,17,8.32,17,16v2.67c-.69.13-1.35.23-2,.33V16C15,7.72,22.62,1,32,1Z" style="fill:#565556"/><path d="M49,16v3a19.75,19.75,0,0,1-2-1.36c-.1-.07-.18-.14-.27-.21A9.887,9.887,0,0,1,43.33,13s-.08-.23-1.13-4A67.745,67.745,0,0,1,32,14.29V1A18.043,18.043,0,0,1,44.58,5.92c.36.36.71.73,1.04,1.11s.63.78.92,1.2a14.882,14.882,0,0,1,.78,1.27c.12.22.24.44.34.66a13.34,13.34,0,0,1,1.14,3.56A13.153,13.153,0,0,1,49,16Z" style="fill:#414043"/><path d="M49,16v3a19.75,19.75,0,0,1-2-1.36V16C47,8.32,40.44,1.98,32,1.11V1A18.043,18.043,0,0,1,44.58,5.92a13.541,13.541,0,0,1,1.04,1.11,11.917,11.917,0,0,1,.92,1.2,12.71,12.71,0,0,1,.78,1.27c.12.22.24.44.34.66a13.34,13.34,0,0,1,1.14,3.56A13.153,13.153,0,0,1,49,16Z" style="fill:#3d3d3d"/></g></svg>