<?xml version="1.0" ?><svg viewBox="0 0 64 64" xmlns="http://www.w3.org/2000/svg"><title/><g id="Icons"><path d="M32,53.58V63H29.22a8.066,8.066,0,0,1-3.53-2.44c-.17-.2-.33-.41-.48-.61a12.588,12.588,0,0,1-.89-1.45c-.09-.19-.18-.38-.26-.57.14-.53.31-1.18.47-1.9.27-1.07.53-2.31.77-3.55a14.6,14.6,0,0,0,3.39.93,14.849,14.849,0,0,0,2.21.17Z" style="fill:#ffd5c0"/><path d="M32,49.346v4.23H30.9a14.977,14.977,0,0,1-5.6-1.1c.232-1.269.453-2.665.64-4.187a11.861,11.861,0,0,0,2.75.846,11.465,11.465,0,0,0,2.209.211Z" style="fill:#ffd5c0"/><path d="M25.3,52.476c-.232,1.241-.5,2.482-.762,3.553-.166.719-.332,1.368-.475,1.9-.066-.155-.133-.31-.188-.452-.1-.253-.188-.493-.254-.719-.1-.3-.177-.564-.243-.817-.022-.1-.044-.2-.066-.282-.066-.282-.111-.508-.144-.677.155-1.1.32-2.186.475-3.285A15.075,15.075,0,0,0,25.3,52.476Z" style="fill:#ffe0d2"/><path d="M25.937,48.289c-.187,1.522-.408,2.918-.64,4.187A15.075,15.075,0,0,1,23.64,51.7c.2-1.424.4-2.848.607-4.272a10.467,10.467,0,0,0,1.061.578A4.239,4.239,0,0,0,25.937,48.289Z" style="fill:#f4cfc3"/><path d="M32,49.346v4.23H30.9a14.977,14.977,0,0,1-5.6-1.1c.232-1.269.453-2.665.64-4.187a11.861,11.861,0,0,0,2.75.846,11.465,11.465,0,0,0,2.209.211Z" style="fill:#f2c8b6"/><path d="M39.94,57.92v.01a1.417,1.417,0,0,1-.08.18c-.06.13-.12.27-.19.41a1.983,1.983,0,0,1-.11.2c-.04.07-.08.14-.12.2-.05.1-.11.2-.17.3a.489.489,0,0,1-.07.11,3.622,3.622,0,0,1-.27.41v.01l-.03.03c-.03.05-.06.09-.09.14,0,.01-.01.02-.02.03a.763.763,0,0,1-.08.11.55.55,0,0,1-.07.09v.01q-.15.2-.33.39v.01a8.238,8.238,0,0,1-2.97,2.22,1.877,1.877,0,0,1-.3.12,2.773,2.773,0,0,1-.26.1H32V53.58h1.1a14.849,14.849,0,0,0,2.21-.17,14.6,14.6,0,0,0,3.39-.93c.24,1.24.5,2.48.77,3.55C39.63,56.75,39.8,57.39,39.94,57.92Z" style="fill:#f9cebb"/><path d="M32,49.346v4.23h1.1a14.977,14.977,0,0,0,5.6-1.1c-.232-1.269-.453-2.665-.641-4.187a11.853,11.853,0,0,1-2.749.846,11.465,11.465,0,0,1-2.209.211Z" style="fill:#ffd5c0"/><path d="M38.7,52.476c.232,1.241.5,2.482.762,3.553.166.719.331,1.368.475,1.9.066-.155.133-.31.188-.452.1-.253.188-.493.254-.719.1-.3.176-.564.243-.817.022-.1.044-.2.066-.282.066-.282.11-.508.144-.677-.155-1.1-.321-2.186-.475-3.285A15.162,15.162,0,0,1,38.7,52.476Z" style="fill:#f2c8b6"/><path d="M32,53.58V63H29.22a8.066,8.066,0,0,1-3.53-2.44c-.17-.2-.33-.41-.48-.61a12.588,12.588,0,0,1-.89-1.45c-.09-.19-.18-.38-.26-.57.14-.53.31-1.18.47-1.9.27-1.07.53-2.31.77-3.55a14.6,14.6,0,0,0,3.39.93,14.849,14.849,0,0,0,2.21.17Z" style="fill:#ffd5c0"/><path d="M25.3,52.476c-.232,1.241-.5,2.482-.762,3.553-.166.719-.332,1.368-.475,1.9-.066-.155-.133-.31-.188-.452-.1-.253-.188-.493-.254-.719-.1-.3-.177-.564-.243-.817-.022-.1-.044-.2-.066-.282-.066-.282-.111-.508-.144-.677.155-1.1.32-2.186.475-3.285A15.075,15.075,0,0,0,25.3,52.476Z" style="fill:#ffe0d2"/><path d="M39.94,57.92v.01a1.417,1.417,0,0,1-.08.18c-.06.13-.12.27-.19.41a1.983,1.983,0,0,1-.11.2c-.04.07-.08.14-.12.2-.05.1-.11.2-.17.3a.489.489,0,0,1-.07.11,3.622,3.622,0,0,1-.27.41v.01l-.03.03c-.03.05-.06.09-.09.14,0,.01-.01.02-.02.03a.763.763,0,0,1-.08.11.55.55,0,0,1-.07.09v.01q-.15.2-.33.39v.01a8.238,8.238,0,0,1-2.97,2.22,1.877,1.877,0,0,1-.3.12,2.773,2.773,0,0,1-.26.1H32V53.58h1.1a14.849,14.849,0,0,0,2.21-.17,14.6,14.6,0,0,0,3.39-.93c.24,1.24.5,2.48.77,3.55C39.63,56.75,39.8,57.39,39.94,57.92Z" style="fill:#f9cebb"/><path d="M38.7,52.476c.232,1.241.5,2.482.762,3.553.166.719.331,1.368.475,1.9.066-.155.133-.31.188-.452.1-.253.188-.493.254-.719.1-.3.176-.564.243-.817.022-.1.044-.2.066-.282.066-.282.11-.508.144-.677-.155-1.1-.321-2.186-.475-3.285A15.162,15.162,0,0,1,38.7,52.476Z" style="fill:#f2c8b6"/><path d="M38.063,48.289c.188,1.522.409,2.918.641,4.187a15.162,15.162,0,0,0,1.657-.775c-.2-1.424-.4-2.848-.608-4.272a10.452,10.452,0,0,1-1.06.578A4.249,4.249,0,0,1,38.063,48.289Z" style="fill:#e5b6a8"/><path d="M32,49.346v4.23h1.1a14.977,14.977,0,0,0,5.6-1.1c-.232-1.269-.453-2.665-.641-4.187a11.853,11.853,0,0,1-2.749.846,11.465,11.465,0,0,1-2.209.211Z" style="fill:#eabdad"/><path d="M29.22,63H1.18a15.087,15.087,0,0,1,2.97-3.49,11.808,11.808,0,0,1,5.34-2.63q5.175-.72,10.35-1.43c1.1-.15,2.22-.31,3.32-.46.04.17.08.39.15.67.02.09.04.19.06.28.07.26.15.53.25.82a.845.845,0,0,0,.05.17,4.61,4.61,0,0,0,.2.55c.06.14.12.3.19.45.08.19.17.38.26.57a12.588,12.588,0,0,0,.89,1.45c.15.2.31.41.48.61A8.066,8.066,0,0,0,29.22,63Z" style="fill:#febd73"/><path d="M62.82,63H34.75c.09-.03.19-.06.29-.1a1.877,1.877,0,0,0,.3-.12,8.238,8.238,0,0,0,2.97-2.22v-.01q.18-.195.33-.39v-.01a.55.55,0,0,0,.07-.09.763.763,0,0,0,.08-.11c.01-.01.02-.02.02-.03.03-.05.06-.09.09-.14l.03-.03v-.01a2.408,2.408,0,0,0,.27-.41.489.489,0,0,0,.07-.11c.06-.1.12-.2.17-.3.16-.27.29-.54.42-.81a1.417,1.417,0,0,0,.08-.18v-.01c.07-.16.14-.3.19-.44a3.439,3.439,0,0,0,.14-.37.142.142,0,0,0,.02-.06.355.355,0,0,0,.04-.09v-.03h.01c.04-.11.07-.22.1-.33.08-.23.14-.44.19-.64v-.02a9.175,9.175,0,0,0,.21-.95c1.1.15,2.22.31,3.32.46,3.44.48,6.9.95,10.35,1.43a11.808,11.808,0,0,1,5.34,2.63A15.087,15.087,0,0,1,62.82,63Z" style="fill:#fab06b"/><path d="M23.67,56.93l-1.7.24c-.57.07-1.14.15-1.71.23v.01c-2.12.29-4.23.58-6.35.88a11.835,11.835,0,0,0-5.35,2.63A12.8,12.8,0,0,0,6.6,63H1.18a15.087,15.087,0,0,1,2.97-3.49,11.808,11.808,0,0,1,5.34-2.63q5.175-.72,10.35-1.43c1.1-.15,2.22-.31,3.32-.46.04.17.08.39.15.67.02.09.04.19.06.28.07.26.15.53.25.82A.845.845,0,0,0,23.67,56.93Z" style="fill:#fedc96"/><path d="M23.673,56.932c-1.137.155-2.275.31-3.412.479l-.033-.127-.089-.409a8.085,8.085,0,0,1-.177-.832l-.121-.592,3.324-.465c.033.169.078.4.144.677.022.084.044.183.066.282.066.253.144.521.243.817A1.019,1.019,0,0,0,23.673,56.932Z" style="fill:#febd73"/><path d="M29.22,63H22.91l-.15-.2a14.747,14.747,0,0,1-1.22-2.01c-.11-.21-.26-.54-.4-.86-.07-.18-.16-.38-.24-.56-.13-.35-.25-.7-.35-1.03-.12-.33-.21-.63-.29-.93V57.4c-.01-.04-.02-.07-.03-.12l-.09-.4c-.09-.34-.14-.61-.18-.84l-.12-.59c1.1-.15,2.22-.31,3.32-.46.04.17.08.39.15.67.02.09.04.19.06.28.07.26.15.53.25.82a.845.845,0,0,0,.05.17,4.61,4.61,0,0,0,.2.55c.06.14.12.3.19.45.08.19.17.38.26.57a12.588,12.588,0,0,0,.89,1.45c.15.2.31.41.48.61A8.066,8.066,0,0,0,29.22,63Z" style="fill:#fab06b"/><path d="M23.673,56.932c-1.137.155-2.275.31-3.412.479l-.033-.127-.089-.409a8.085,8.085,0,0,1-.177-.832l-.121-.592,3.324-.465c.033.169.078.4.144.677.022.084.044.183.066.282.066.253.144.521.243.817A1.019,1.019,0,0,0,23.673,56.932Z" style="fill:#f9ba85"/><path d="M44.16,55.45l-.12.59c-.04.23-.09.5-.18.84l-.09.4c-.01.05-.02.08-.03.12v.01c-.08.3-.17.6-.29.93-.1.33-.22.68-.36,1.03-.07.18-.16.38-.24.59-.13.29-.28.62-.45.93a13.367,13.367,0,0,1-1.16,1.91l-.15.2H34.78a5.851,5.851,0,0,0,.56-.22,8.238,8.238,0,0,0,2.97-2.22v-.01q.18-.195.33-.39v-.01a.55.55,0,0,0,.07-.09.763.763,0,0,0,.08-.11c.01-.01.02-.02.02-.03.04-.06.08-.11.12-.17.01,0,0-.01,0-.01a2.408,2.408,0,0,0,.27-.41.489.489,0,0,0,.07-.11c.15-.24.28-.47.4-.7.07-.14.13-.28.19-.41a1.417,1.417,0,0,0,.08-.18c.07-.16.14-.31.19-.45a3.439,3.439,0,0,0,.14-.37l.06-.15v-.01c0-.01,0-.01.01-.02.04-.11.07-.22.1-.33.08-.23.14-.44.19-.64v-.02a9.175,9.175,0,0,0,.21-.95C41.94,55.14,43.06,55.3,44.16,55.45Z" style="fill:#fc8e52"/><path d="M62.82,63H57.4a12.8,12.8,0,0,0-1.96-2.08,11.835,11.835,0,0,0-5.35-2.63c-2.12-.3-4.23-.59-6.35-.88V57.4c-.57-.08-1.14-.16-1.71-.23l-1.69-.24h-.01a.845.845,0,0,0,.05-.17c.02-.06.04-.11.06-.16.08-.23.14-.44.19-.64v-.02c.02-.09.04-.19.06-.28.07-.28.11-.5.15-.67,1.1.15,2.22.31,3.32.46,3.44.48,6.9.95,10.35,1.43a11.808,11.808,0,0,1,5.34,2.63A15.087,15.087,0,0,1,62.82,63Z" style="fill:#fc8e52"/><path d="M40.327,56.932c1.138.155,2.276.31,3.413.479l.033-.127.089-.409a7.787,7.787,0,0,0,.176-.832l.122-.592-3.324-.465c-.034.169-.078.4-.144.677-.022.084-.044.183-.066.282-.067.253-.144.521-.243.817A.939.939,0,0,1,40.327,56.932Z" style="fill:#ed753a"/><path d="M52.007,24.5a1,1,0,0,1,1,1v4a3,3,0,0,1-2.482,2.948,2.623,2.623,0,0,1-.518.052h-1v-8Z" style="fill:#ffe0d2"/><path d="M49.007,24.5v8a2.469,2.469,0,0,0,1-.206,3.39,3.39,0,0,0,2-3.223V25.643a1.082,1.082,0,0,0-1-1.143Z" style="fill:#ffd5c0"/><path d="M49.007,31.357a1.559,1.559,0,0,0,.639-.129,2.267,2.267,0,0,0,1.361-2.157V25.643h-2Z" style="fill:#f9c9b4"/><path d="M32,5.52V15.77h-.01c-1.61.65-3.32,1.3-5.13,1.9A81.769,81.769,0,0,1,15.3,20.58c-.09.02-.18.03-.27.05A15.816,15.816,0,0,1,30.87,5.52Z" style="fill:#ffd5c0"/><path d="M31.99,17.77H32V50.68H30.87a15.976,15.976,0,0,1-6.83-1.54A15.785,15.785,0,0,1,15,34.87V22.63c.1-.02.2-.03.3-.05a81.769,81.769,0,0,0,11.56-2.91C28.67,19.07,30.38,18.42,31.99,17.77Z" style="fill:#ffd5c0"/><path d="M26.311,49.368A15.084,15.084,0,0,0,32,50.952V51H30.867a15.121,15.121,0,0,1-6.823-1.632A16.888,16.888,0,0,1,15,34.2V21.8c.1-.024.2-.036.306-.06.635-.12,1.292-.252,1.961-.408V34.2A16.888,16.888,0,0,0,26.311,49.368Z" style="fill:#ffe0d2"/><path d="M43.55,9.89A77.1,77.1,0,0,1,32,15.77V3h1.13c8.22,0,14.99,6.62,15.79,15.11a12.5,12.5,0,0,1,.07,1.38c-.12-.08-.21-.16-.31-.23a11.005,11.005,0,0,1-3.85-4.93S44.74,14.08,43.55,9.89Z" style="fill:#f9cebb"/><path d="M49,21.5V34.2a16.925,16.925,0,0,1-9.03,15.17A15.221,15.221,0,0,1,33.13,51H32V17.77a77.1,77.1,0,0,0,11.55-5.88c1.19,4.19,1.28,4.44,1.28,4.44a11.005,11.005,0,0,0,3.85,4.93c.1.07.19.15.31.23Z" style="fill:#f9cebb"/><path d="M49,20.568V34.2a16.886,16.886,0,0,1-9.044,15.168A15.12,15.12,0,0,1,33.134,51H32v-.048a15.089,15.089,0,0,0,5.69-1.584A16.888,16.888,0,0,0,46.734,34.2V19.8c0-.132,0-.276-.012-.408-.011-.384-.034-.78-.068-1.152a14.664,14.664,0,0,0,2.04,2.076C48.8,20.4,48.887,20.484,49,20.568Z" style="fill:#f2c8b6"/><path d="M49,19.8v.768c-.113-.084-.2-.168-.306-.252a14.664,14.664,0,0,1-2.04-2.076,17.072,17.072,0,0,0-.566-3.168,14.361,14.361,0,0,0,2.606,2.844c.08.06.136.12.216.18.011.1.022.2.034.312a2.546,2.546,0,0,1,.022.3c.012.228.023.456.023.684C49,19.524,49,19.668,49,19.8Z" style="fill:#ddb3a6"/><path d="M48.375,19.731a2.241,2.241,0,0,1,.022.282c-.011-.1-.022-.2-.033-.294Z" style="fill:#eabdad"/><path d="M12,24.5a1,1,0,0,0-1,1v4a3,3,0,0,0,2.483,2.948A2.605,2.605,0,0,0,14,32.5h1v-8Z" style="fill:#ffe0d2"/><path d="M15,24.5v8a2.469,2.469,0,0,1-1-.206,3.39,3.39,0,0,1-2-3.223V25.643A1.082,1.082,0,0,1,13,24.5Z" style="fill:#ffd5c0"/><path d="M15,31.357a1.554,1.554,0,0,1-.638-.129A2.266,2.266,0,0,1,13,29.071V25.643h2Z" style="fill:#f9c9b4"/><rect height="1.2" style="fill:#565556" width="2.267" x="46.734" y="23.4"/><path d="M48.99,21.49l.01.01v1.31H46.73V19.44a15.23,15.23,0,0,0,1.95,1.82C48.78,21.33,48.87,21.41,48.99,21.49Z" style="fill:#565556"/><rect height="1.2" style="fill:#666" width="2.267" x="15" y="23.4"/><path d="M17.27,22.21v.6H15v-.18c.1-.02.2-.03.3-.05C15.94,22.47,16.6,22.34,17.27,22.21Z" style="fill:#666"/><path d="M31.992,1V15.767c-1.609.655-3.32,1.3-5.132,1.9A82.231,82.231,0,0,1,15.3,20.578c-.9.166-1.745.3-2.572.422V17.667C12.731,8.467,21.365,1,31.992,1Z" style="fill:#484749"/><path d="M31.992,1v.122C22.43,2.089,15,9.133,15,17.667v2.966c-.782.145-1.529.256-2.266.367V17.667C12.731,8.467,21.365,1,31.992,1Z" style="fill:#565556"/><path d="M51.253,17.667V21a22.415,22.415,0,0,1-2.266-1.511c-.113-.078-.2-.156-.306-.233a11.007,11.007,0,0,1-3.852-4.923s-.091-.255-1.28-4.444a77.26,77.26,0,0,1-11.557,5.878V1A20.658,20.658,0,0,1,46.245,6.467c.408.4.8.811,1.179,1.233s.713.867,1.042,1.333.612.923.884,1.411c.136.245.272.489.385.734a14.616,14.616,0,0,1,1.292,3.955A14.378,14.378,0,0,1,51.253,17.667Z" style="fill:#414043"/><path d="M51.253,17.667V21a22.415,22.415,0,0,1-2.266-1.511V17.667c0-8.534-7.432-15.578-16.995-16.545V1A20.658,20.658,0,0,1,46.245,6.467,15.341,15.341,0,0,1,47.424,7.7a13.412,13.412,0,0,1,1.042,1.333,14.352,14.352,0,0,1,.884,1.411c.136.245.272.489.385.734a14.616,14.616,0,0,1,1.292,3.955A14.378,14.378,0,0,1,51.253,17.667Z" style="fill:#3d3d3d"/><path d="M17.27,20.21v2c-.67.13-1.33.26-1.97.37-.1.02-.2.03-.3.05V21.32c0-.12,0-.26.01-.38,0-.1.01-.21.02-.31.09-.02.18-.03.27-.05C15.94,20.47,16.6,20.34,17.27,20.21Z" style="fill:#565556"/><path d="M32,15.77v2h-.01c-1.61.65-3.32,1.3-5.13,1.9a81.077,81.077,0,0,1-9.59,2.54v-2a81.077,81.077,0,0,0,9.59-2.54c1.81-.6,3.52-1.25,5.13-1.9Z" style="fill:#f2c8b6"/><path d="M49,19.8v1.7l-.01-.01c-.12-.08-.21-.16-.31-.23a15.23,15.23,0,0,1-1.95-1.82v-2a15.23,15.23,0,0,0,1.95,1.82c.1.07.19.15.31.23C49,19.59,49,19.7,49,19.8Z" style="fill:#484749"/><path d="M46.73,17.44v2a9.173,9.173,0,0,1-1.9-3.11s-.09-.25-1.28-4.44A77.1,77.1,0,0,1,32,17.77v-2A77.1,77.1,0,0,0,43.55,9.89c1.19,4.19,1.28,4.44,1.28,4.44A9.173,9.173,0,0,0,46.73,17.44Z" style="fill:#eabdad"/><path d="M38.4,45.3a.507.507,0,0,1-.4.2.492.492,0,0,1-.3-.1A9.6,9.6,0,0,0,32,43.5v-1a10.641,10.641,0,0,1,6.3,2.1A.5.5,0,0,1,38.4,45.3Z" style="fill:#414043"/><path d="M32,42.5v1a9.6,9.6,0,0,0-5.7,1.9.5.5,0,0,1-.6-.8A10.641,10.641,0,0,1,32,42.5Z" style="fill:#484749"/><circle cx="26" cy="28" r="1.5" style="fill:#484749"/><circle cx="38" cy="28" r="1.5" style="fill:#414043"/><path d="M34,39l1.716,3.885a3.477,3.477,0,0,1-.3,3.316l0,0a1.652,1.652,0,0,1-2.825,0l0,0a3.477,3.477,0,0,1-.3-3.316Z" style="fill:#75eae2"/><path d="M21,29.5a.5.5,0,0,1-.194-.96,20.123,20.123,0,0,0,7.806-5.855.5.5,0,0,1,.777.63A21.108,21.108,0,0,1,21.2,29.46.5.5,0,0,1,21,29.5Z" style="fill:#565556"/><path d="M43,29.5a.5.5,0,0,1-.194-.04,21.108,21.108,0,0,1-8.194-6.145.5.5,0,0,1,.777-.63A20.123,20.123,0,0,0,43.2,28.54a.5.5,0,0,1-.2.96Z" style="fill:#484749"/><path d="M34.43,39H32.74a2.3,2.3,0,0,0,2.02-1.68c.01-.01.02-.02.02-.03a4.414,4.414,0,0,0,.15-.55,3.766,3.766,0,0,0-.03-1.6l-.88-3.28-.01-.03L33.67,30h1.12l1.28,6.84A1.767,1.767,0,0,1,34.43,39Z" style="fill:#eabdad"/><polygon points="34.01 31.83 33.66 30 33.67 30 34.01 31.83" style="fill:#eabdad"/><path d="M33.77,38.18a.01.01,0,0,1-.01.01v-.01Z" style="fill:#eabdad"/><path d="M31.99,30v8.25H30.68a1.948,1.948,0,0,1-.25-.02,1.6,1.6,0,0,1-.21-.05h-.01a1.468,1.468,0,0,1-.15-.34.935.935,0,0,1-.07-.22c-.01-.05-.02-.09-.03-.14a1.972,1.972,0,0,1,.01-.64L31.26,30Z" style="fill:#f4b89a"/><path d="M30.21,38.18h.01v.01A.01.01,0,0,1,30.21,38.18Z" style="fill:#f4b89a"/><path d="M30.28,38.28c.01.01.02.03.03.04v.01a.01.01,0,0,0-.01-.01C30.29,38.31,30.29,38.29,30.28,38.28Z" style="fill:#f4b89a"/><path d="M30.38,38.41l-.05-.05a.138.138,0,0,0,.04.03C30.37,38.4,30.37,38.4,30.38,38.41Z" style="fill:#f4b89a"/><polygon points="34.01 31.83 33.66 30 33.67 30 34.01 31.83" style="fill:#efb297"/><path d="M33.99,37.63c-.01.03-.02.06-.03.1a1.79,1.79,0,0,1-.19.45h-.01a1.691,1.691,0,0,1-.45.07H31.99V30h.73l1.29,6.84A1.9,1.9,0,0,1,33.99,37.63Z" style="fill:#efb297"/><path d="M33.77,38.18a.01.01,0,0,1-.01.01v-.01Z" style="fill:#efb297"/><path d="M30.06,37.84a1.468,1.468,0,0,0,.15.34,1.71,1.71,0,0,1-.93-.75,3.528,3.528,0,0,1-.22-.74v-.01a3.824,3.824,0,0,1,.04-1.54l.82-3.03.01-.03L30.32,30h.94l-1.29,6.84a1.972,1.972,0,0,0-.01.64c.01.05.02.09.03.14A.626.626,0,0,0,30.06,37.84Z" style="fill:#f7c4ad"/><path d="M30.21,38.18h.01v.01A.01.01,0,0,1,30.21,38.18Z" style="fill:#727172"/><path d="M30.28,38.28c.01.01.02.03.03.04v.01a.01.01,0,0,0-.01-.01C30.29,38.31,30.29,38.29,30.28,38.28Z" style="fill:#727172"/><path d="M30.38,38.41l-.05-.05a.138.138,0,0,0,.04.03C30.37,38.4,30.37,38.4,30.38,38.41Z" style="fill:#727172"/><path d="M34.93,36.74a4.414,4.414,0,0,1-.15.55c0,.01-.01.02-.02.03a1.707,1.707,0,0,1-.99.86,1.79,1.79,0,0,0,.19-.45c.01-.04.02-.07.03-.1a1.9,1.9,0,0,0,.02-.79L32.72,30h.94l.35,1.83.01.03.88,3.28A3.766,3.766,0,0,1,34.93,36.74Z" style="fill:#efae8e"/><path d="M33.77,38.18a.01.01,0,0,1-.01.01v-.01Z" style="fill:#727172"/><path d="M31.99,38.25V39h-.37a.554.554,0,0,1-.18-.02H31.4c-.01,0-.01,0-.02-.01a.127.127,0,0,1-.06-.01.066.066,0,0,1-.06-.01.06.06,0,0,1-.04-.01.775.775,0,0,1-.23-.07.941.941,0,0,1-.22-.12.01.01,0,0,1-.01-.01.381.381,0,0,1-.13-.09.883.883,0,0,1-.22-.21l-.03-.03c-.01-.01-.01-.01-.01-.02a.138.138,0,0,1-.04-.03c0-.01-.01-.02-.02-.03v-.01c-.01-.01-.02-.03-.03-.04l-.02-.02c-.01-.02-.03-.05-.04-.07v-.01a1.6,1.6,0,0,0,.21.05,1.948,1.948,0,0,0,.25.02Z" style="fill:#efb297"/><path d="M30.22,38.18v.01a.01.01,0,0,1-.01-.01Z" style="fill:#efb297"/><path d="M30.31,38.32H30.3c-.01-.01-.01-.03-.02-.04C30.29,38.29,30.3,38.31,30.31,38.32Z" style="fill:#efb297"/><path d="M30.38,38.41l-.05-.05a.138.138,0,0,0,.04.03C30.37,38.4,30.37,38.4,30.38,38.41Z" style="fill:#efb297"/><path d="M31.62,39h-.35a2.253,2.253,0,0,1-1.99-1.57,1.71,1.71,0,0,0,.93.75.01.01,0,0,0,.01.01c.01.02.03.05.04.07l.02.02c.01.01.01.03.02.04a.01.01,0,0,1,.01.01c.01.01.02.02.02.03l.05.05.03.03a.883.883,0,0,0,.22.21.381.381,0,0,0,.13.09.01.01,0,0,0,.01.01.941.941,0,0,0,.22.12.775.775,0,0,0,.23.07.06.06,0,0,0,.04.01.066.066,0,0,0,.06.01.127.127,0,0,0,.06.01c.01.01.01.01.02.01a.019.019,0,0,0,.03,0h.01A.554.554,0,0,0,31.62,39Z" style="fill:#f4b89a"/><path d="M30.38,38.41l-.05-.05a.138.138,0,0,0,.04.03C30.37,38.4,30.37,38.4,30.38,38.41Z" style="fill:#f4b89a"/><path d="M34.76,37.32A2.3,2.3,0,0,1,32.74,39h-.37a1.492,1.492,0,0,0,.21-.02.17.17,0,0,0,.07-.01.235.235,0,0,0,.08-.02c.01.01.03,0,.04-.01a.127.127,0,0,0,.06-.01c.02,0,.03-.01.05-.02a.694.694,0,0,0,.13-.05c.01,0,.01,0,.02-.01a.467.467,0,0,0,.1-.05.086.086,0,0,0,.06-.03c.01,0,.02-.01.04-.03a.834.834,0,0,0,.12-.08.5.5,0,0,0,.11-.1.943.943,0,0,0,.1-.1,1.052,1.052,0,0,0,.2-.27.01.01,0,0,0,.01-.01A1.707,1.707,0,0,0,34.76,37.32Z" style="fill:#eaa688"/><path d="M33.76,38.18v.01a1.89,1.89,0,0,1-.2.27.943.943,0,0,1-.1.1.5.5,0,0,1-.11.1.834.834,0,0,1-.12.08c-.02.02-.03.03-.04.03a.086.086,0,0,1-.06.03.467.467,0,0,1-.1.05c-.01.01-.01.01-.02.01a.694.694,0,0,1-.13.05c-.02.01-.03.02-.05.02a.127.127,0,0,1-.06.01c-.01.01-.03.02-.04.01a.235.235,0,0,1-.08.02.17.17,0,0,1-.07.01,1.492,1.492,0,0,1-.21.02h-.38v-.75h1.32A1.691,1.691,0,0,0,33.76,38.18Z" style="fill:#efae8e"/><path d="M33.77,38.18a.01.01,0,0,1-.01.01v-.01Z" style="fill:#efae8e"/></g></svg>