<?xml version="1.0" ?><svg viewBox="0 0 64 64" xmlns="http://www.w3.org/2000/svg"><title/><g id="Icons"><path d="M32,5V45H31A14,14,0,0,1,17,31V19c0-.11,0-.23.01-.34A14,14,0,0,1,31,5Z" style="fill:#ffd5c0"/><path d="M32,5v.04A13.97,13.97,0,0,0,19.03,18.28c-.6.12-1.19.24-1.76.34-.09.02-.18.03-.26.04A14,14,0,0,1,31,5Z" style="fill:#ffe0d2"/><path d="M26.98,43.64A13.916,13.916,0,0,0,32,44.96V45H31A14,14,0,0,1,17,31V20.67c.09-.02.18-.03.27-.05.56-.1,1.14-.21,1.73-.34V31A13.991,13.991,0,0,0,26.98,43.64Z" style="fill:#ffe0d2"/><path d="M47,19V31A13.986,13.986,0,0,1,33,45H32V5h1A14.008,14.008,0,0,1,46.93,17.59,13.052,13.052,0,0,1,47,19Z" style="fill:#f9cebb"/><path d="M41.32,9.54A13.97,13.97,0,0,0,32,5.04V5h1A14,14,0,0,1,46.92,17.58c-.07-.05-.12-.1-.19-.15a12.241,12.241,0,0,1-2.3-2.37.01.01,0,0,1-.01-.01,13.9,13.9,0,0,0-3.1-5.51Z" style="fill:#f2c8b6"/><path d="M47,19.64V31A14,14,0,0,1,33,45H32v-.04A13.985,13.985,0,0,0,45,31V19c0-.11,0-.23-.01-.34-.01-.32-.03-.65-.06-.96a12.535,12.535,0,0,0,1.8,1.73C46.82,19.5,46.9,19.57,47,19.64Z" style="fill:#f2c8b6"/><path d="M19.03,18.28c-.01.12-.02.25-.02.38-.01.11-.01.23-.01.34v1.28c-.59.13-1.17.24-1.73.34-.09.02-.18.03-.27.05V19c0-.11,0-.23.01-.34.08-.01.17-.02.26-.04C17.84,18.52,18.43,18.4,19.03,18.28Z" style="fill:#f4cfc1"/><path d="M32,14.29v2c-1.42.59-2.93,1.17-4.53,1.71A70.382,70.382,0,0,1,19,20.28V19c0-.11,0-.23.01-.34,0-.13.01-.26.02-.38A70.009,70.009,0,0,0,27.47,16C29.07,15.46,30.58,14.88,32,14.29Z" style="fill:#f2c8b6"/><path d="M47,19v.64c-.1-.07-.18-.14-.27-.21a12.535,12.535,0,0,1-1.8-1.73,13.538,13.538,0,0,0-.5-2.64,12.241,12.241,0,0,0,2.3,2.37c.07.05.12.1.19.15.01.08.02.17.03.26a1.948,1.948,0,0,1,.02.25c.01.19.02.38.02.57C47,18.77,47,18.89,47,19Z" style="fill:#ddb3a6"/><path d="M44.43,15.06a13.538,13.538,0,0,1,.5,2.64,8.243,8.243,0,0,1-1.6-2.7s-.08-.23-1.13-4A67.745,67.745,0,0,1,32,16.29v-2a67.214,67.214,0,0,0,9.32-4.75c.3-.18.6-.36.88-.54.36,1.29.61,2.17.78,2.76.32,1.14.35,1.24.35,1.24a7.635,7.635,0,0,0,1.09,2.05A.01.01,0,0,0,44.43,15.06Z" style="fill:#eabdad"/><path d="M46.93,17.59a1.948,1.948,0,0,1,.02.25c-.01-.09-.02-.18-.03-.26Z" style="fill:#eabdad"/><path d="M17,23v7H16a2.772,2.772,0,0,1-1-.18A2.968,2.968,0,0,1,13,27V24a1,1,0,0,1,1-1Z" style="fill:#ffe0d2"/><path d="M17,23v7a2.772,2.772,0,0,1-1-.18A2.968,2.968,0,0,1,14,27V24a1,1,0,0,1,1-1Z" style="fill:#ffd5c0"/><path d="M17,29a1.753,1.753,0,0,1-.638-.113A1.986,1.986,0,0,1,15,27V24h2Z" style="fill:#f9c9b4"/><path d="M47,23v7h1a2.772,2.772,0,0,0,1-.18A2.968,2.968,0,0,0,51,27V24a1,1,0,0,0-1-1Z" style="fill:#ffd5c0"/><path d="M47,23v7a2.772,2.772,0,0,0,1-.18A2.968,2.968,0,0,0,50,27V24a1,1,0,0,0-1-1Z" style="fill:#f9cebb"/><path d="M47,29a1.758,1.758,0,0,0,.639-.113A1.985,1.985,0,0,0,49,27V24H47Z" style="fill:#f4b89a"/><path d="M32,48v7c-.02,0-.39,0-.61-.02-.12-.01-.24-.02-.35-.04a.986.986,0,0,1-.24-.03,7.7,7.7,0,0,1-4.51-1.96c-.16-.14-.3-.29-.44-.43a7.982,7.982,0,0,1-.8-1.03,4.231,4.231,0,0,1-.24-.4c.13-.38.28-.84.43-1.35.24-.76.48-1.64.69-2.52a16.155,16.155,0,0,0,3.07.66A16.647,16.647,0,0,0,31,48Z" style="fill:#ffd5c0"/><path d="M32,45v3H31a16.647,16.647,0,0,1-2-.12,16.155,16.155,0,0,1-3.07-.66c.21-.9.41-1.89.58-2.97a12.924,12.924,0,0,0,2.49.6A13.168,13.168,0,0,0,31,45Z" style="fill:#ffd5c0"/><path d="M25.93,47.22c-.21.88-.45,1.76-.69,2.52-.15.51-.3.97-.43,1.35-.06-.11-.12-.22-.17-.32a5.45,5.45,0,0,1-.23-.51c-.09-.21-.16-.4-.22-.58-.02-.07-.04-.14-.06-.2-.06-.2-.1-.36-.13-.48.14-.78.29-1.55.43-2.33A15.816,15.816,0,0,0,25.93,47.22Z" style="fill:#ffe0d2"/><path d="M26.51,44.25c-.17,1.08-.37,2.07-.58,2.97a15.816,15.816,0,0,1-1.5-.55c.18-1.01.36-2.02.55-3.03a10.254,10.254,0,0,0,.96.41A4.3,4.3,0,0,0,26.51,44.25Z" style="fill:#f4cfc3"/><path d="M32,45v3H31a16.647,16.647,0,0,1-2-.12,16.155,16.155,0,0,1-3.07-.66c.21-.9.41-1.89.58-2.97a12.924,12.924,0,0,0,2.49.6A13.168,13.168,0,0,0,31,45Z" style="fill:#f2c8b6"/><path d="M32,48v7c.02,0,.39,0,.61-.02.12-.01.24-.02.35-.04a.986.986,0,0,0,.24-.03,7.7,7.7,0,0,0,4.51-1.96c.16-.14.3-.29.44-.43a7.982,7.982,0,0,0,.8-1.03,4.231,4.231,0,0,0,.24-.4c-.13-.38-.28-.84-.43-1.35-.24-.76-.48-1.64-.69-2.52a16.155,16.155,0,0,1-3.07.66A16.647,16.647,0,0,1,33,48Z" style="fill:#f9cebb"/><path d="M32,45v3h1a16.647,16.647,0,0,0,2-.12,16.155,16.155,0,0,0,3.07-.66c-.21-.9-.41-1.89-.58-2.97a12.924,12.924,0,0,1-2.49.6A13.168,13.168,0,0,1,33,45Z" style="fill:#ffd5c0"/><path d="M38.07,47.22c.21.88.45,1.76.69,2.52.15.51.3.97.43,1.35.06-.11.12-.22.17-.32a5.45,5.45,0,0,0,.23-.51c.09-.21.16-.4.22-.58.02-.07.04-.14.06-.2.06-.2.1-.36.13-.48-.14-.78-.29-1.55-.43-2.33A15.816,15.816,0,0,1,38.07,47.22Z" style="fill:#f2c8b6"/><path d="M32,48v7c-.02,0-.39,0-.61-.02-.12-.01-.24-.02-.35-.04a.986.986,0,0,1-.24-.03,7.7,7.7,0,0,1-4.51-1.96c-.16-.14-.3-.29-.44-.43a7.982,7.982,0,0,1-.8-1.03,4.231,4.231,0,0,1-.24-.4c.13-.38.28-.84.43-1.35.24-.76.48-1.64.69-2.52a16.155,16.155,0,0,0,3.07.66A16.647,16.647,0,0,0,31,48Z" style="fill:#ffd5c0"/><path d="M25.93,47.22c-.21.88-.45,1.76-.69,2.52-.15.51-.3.97-.43,1.35-.06-.11-.12-.22-.17-.32a5.45,5.45,0,0,1-.23-.51c-.09-.21-.16-.4-.22-.58-.02-.07-.04-.14-.06-.2-.06-.2-.1-.36-.13-.48.14-.78.29-1.55.43-2.33A15.816,15.816,0,0,0,25.93,47.22Z" style="fill:#ffe0d2"/><path d="M32,48v7c.02,0,.39,0,.61-.02.12-.01.24-.02.35-.04a.986.986,0,0,0,.24-.03,7.7,7.7,0,0,0,4.51-1.96c.16-.14.3-.29.44-.43a7.982,7.982,0,0,0,.8-1.03,4.231,4.231,0,0,0,.24-.4c-.13-.38-.28-.84-.43-1.35-.24-.76-.48-1.64-.69-2.52a16.155,16.155,0,0,1-3.07.66A16.647,16.647,0,0,1,33,48Z" style="fill:#f9cebb"/><path d="M38.07,47.22c.21.88.45,1.76.69,2.52.15.51.3.97.43,1.35.06-.11.12-.22.17-.32a5.45,5.45,0,0,0,.23-.51c.09-.21.16-.4.22-.58.02-.07.04-.14.06-.2.06-.2.1-.36.13-.48-.14-.78-.29-1.55-.43-2.33A15.816,15.816,0,0,1,38.07,47.22Z" style="fill:#f2c8b6"/><path d="M37.49,44.25c.17,1.08.37,2.07.58,2.97a15.816,15.816,0,0,0,1.5-.55c-.18-1.01-.36-2.02-.55-3.03a10.254,10.254,0,0,1-.96.41A4.3,4.3,0,0,1,37.49,44.25Z" style="fill:#e5b6a8"/><path d="M32,45v3h1a16.647,16.647,0,0,0,2-.12,16.155,16.155,0,0,0,3.07-.66c-.21-.9-.41-1.89-.58-2.97a12.924,12.924,0,0,1-2.49.6A13.168,13.168,0,0,1,33,45Z" style="fill:#eabdad"/><path d="M19.03,18.28c-.01.12-.02.25-.02.38-.01.11-.01.23-.01.34v-.71A.037.037,0,0,1,19.03,18.28Z" style="fill:#f4cfc1"/><rect height="1" style="fill:#565556" width="2" x="45" y="22"/><path d="M47,19v.64c-.1-.07-.18-.14-.27-.21A12.588,12.588,0,0,1,45,17.78v-2a13.237,13.237,0,0,0,1.73,1.65c.07.05.12.1.19.15.01.08.02.17.03.26a1.948,1.948,0,0,1,.02.25c.01.19.02.38.02.57C47,18.77,47,18.89,47,19Z" style="fill:#484749"/><path d="M47,19.64v1.87H45V17.78a12.588,12.588,0,0,0,1.73,1.65C46.82,19.5,46.9,19.57,47,19.64Z" style="fill:#565556"/><rect height="1" style="fill:#666" width="2" x="17" y="22"/><path d="M17.27,20.62c.56-.1,1.14-.21,1.73-.34v1.23H17v-.84C17.09,20.65,17.18,20.64,17.27,20.62Z" style="fill:#666"/><path d="M19,18.29v1.99c-.59.13-1.17.24-1.73.34-.09.02-.18.03-.27.05V19c0-.11,0-.23.01-.34.08-.01.17-.02.26-.04C17.83,18.52,18.41,18.4,19,18.29Z" style="fill:#565556"/><path d="M32,1V14.29c-1.42.59-2.93,1.17-4.53,1.71a71.468,71.468,0,0,1-10.2,2.62c-.79.15-1.54.27-2.27.38V16C15,7.72,22.62,1,32,1Z" style="fill:#484749"/><path d="M32,1v.11C23.56,1.98,17,8.32,17,16v2.67c-.69.13-1.35.23-2,.33V16C15,7.72,22.62,1,32,1Z" style="fill:#565556"/><path d="M49,16v3a19.75,19.75,0,0,1-2-1.36c-.1-.07-.18-.14-.27-.21A9.887,9.887,0,0,1,43.33,13s-.08-.23-1.13-4A67.745,67.745,0,0,1,32,14.29V1A18.043,18.043,0,0,1,44.58,5.92c.36.36.71.73,1.04,1.11s.63.78.92,1.2a14.882,14.882,0,0,1,.78,1.27c.12.22.24.44.34.66a13.34,13.34,0,0,1,1.14,3.56A13.153,13.153,0,0,1,49,16Z" style="fill:#414043"/><path d="M49,16v3a19.75,19.75,0,0,1-2-1.36V16C47,8.32,40.44,1.98,32,1.11V1A18.043,18.043,0,0,1,44.58,5.92a13.541,13.541,0,0,1,1.04,1.11,11.917,11.917,0,0,1,.92,1.2,12.71,12.71,0,0,1,.78,1.27c.12.22.24.44.34.66a13.34,13.34,0,0,1,1.14,3.56A13.153,13.153,0,0,1,49,16Z" style="fill:#3d3d3d"/><path d="M32,55v8H1c.07-.98.6-7.35,5.78-10.79a12.229,12.229,0,0,1,4.84-1.87Q17.815,49.665,24,49c.03.12.07.28.13.48.02.06.04.13.06.2.06.18.13.37.22.58a5.45,5.45,0,0,0,.23.51c.05.1.11.21.17.32a4.231,4.231,0,0,0,.24.4,7.982,7.982,0,0,0,.8,1.03c.14.14.28.29.44.43a7.7,7.7,0,0,0,4.51,1.96.986.986,0,0,0,.24.03c.11.02.23.03.35.04C31.61,55,31.98,55,32,55Z" style="fill:#febd73"/><path d="M63,63H32V55c.02,0,.39,0,.61-.02.12-.01.24-.02.35-.04a.986.986,0,0,0,.24-.03,7.879,7.879,0,0,0,3.19-.99v-.01a7.331,7.331,0,0,0,1.32-.96c.16-.14.3-.29.44-.43a4.925,4.925,0,0,0,.43-.52,6.157,6.157,0,0,0,.51-.74h.01c.01-.02.01-.03.02-.04.03-.05.05-.09.07-.13a7.49,7.49,0,0,0,.35-.69c0-.01,0-.02.01-.02.01-.04.03-.08.04-.12.09-.21.16-.4.22-.58.02-.07.04-.14.06-.2.06-.2.1-.36.13-.48.02,0,.05.01.07.01.88.09,1.75.19,2.63.28.1.01.21.03.31.04l6.67.72c.9.09,1.8.19,2.7.29a12.229,12.229,0,0,1,4.84,1.87,13.357,13.357,0,0,1,5.32,7.95A17.02,17.02,0,0,1,63,63Z" style="fill:#fab06b"/><path d="M24.41,50.26a.612.612,0,0,0,.05.12l-8.84.96a12.229,12.229,0,0,0-4.84,1.87C6.53,56.04,5.41,60.84,5.11,63H1c.07-.98.6-7.35,5.78-10.79a12.229,12.229,0,0,1,4.84-1.87Q17.815,49.665,24,49c.03.12.07.28.13.48.02.06.04.13.06.2C24.25,49.86,24.32,50.05,24.41,50.26Z" style="fill:#fedc96"/><path d="M24.46,50.38c-1.03.11-2.06.22-3.09.34l-.03-.09-.08-.29a4.509,4.509,0,0,1-.16-.59l-.11-.42L24,49c.03.12.07.28.13.48.02.06.04.13.06.2.06.18.13.37.22.58A.612.612,0,0,0,24.46,50.38Z" style="fill:#febd73"/><path d="M32,55v3c-.03,0-.56,0-.88-.03-.13-.01-.25-.03-.37-.04a2.348,2.348,0,0,1-.37-.05,10.584,10.584,0,0,1-6.11-2.71c-.13-.12-.3-.28-.46-.44l-.18-.19a11.261,11.261,0,0,1-1.1-1.42c-.1-.15-.24-.39-.36-.61-.07-.13-.15-.27-.22-.4-.12-.25-.23-.5-.32-.73-.12-.27-.21-.51-.29-.75l-.08-.29a4.509,4.509,0,0,1-.16-.59l-.11-.42L24,49c.03.12.07.28.13.48.02.06.04.13.06.2.06.18.13.37.22.58a5.45,5.45,0,0,0,.23.51c.05.1.11.21.17.32a4.231,4.231,0,0,0,.24.4,7.982,7.982,0,0,0,.8,1.03c.14.14.28.29.44.43a7.7,7.7,0,0,0,4.51,1.96.986.986,0,0,0,.24.03c.11.02.23.03.35.04C31.61,55,31.98,55,32,55Z" style="fill:#fab06b"/><path d="M24.46,50.38c-1.03.11-2.06.22-3.09.34l-.03-.09-.08-.29a4.509,4.509,0,0,1-.16-.59l-.11-.42L24,49c.03.12.07.28.13.48.02.06.04.13.06.2.06.18.13.37.22.58A.612.612,0,0,0,24.46,50.38Z" style="fill:#f9ba85"/><path d="M43.01,49.33l-.1.4a5.926,5.926,0,0,1-.17.61l-.08.29c-.08.24-.17.48-.29.75a7.581,7.581,0,0,1-.33.73c-.06.13-.14.27-.22.42-.11.2-.25.44-.4.66a10.58,10.58,0,0,1-1.05,1.35l-.18.19c-.16.16-.33.32-.5.48a10.551,10.551,0,0,1-6.07,2.67,2.348,2.348,0,0,1-.37.05c-.12.01-.25.03-.37.04-.32.03-.85.03-.88.03V55c.02,0,.39,0,.61-.02.12-.01.24-.02.35-.04a.986.986,0,0,0,.24-.03A7.59,7.59,0,0,0,40,49Z" style="fill:#fc8e52"/><path d="M63,63H58.89a16.008,16.008,0,0,0-2.08-6,11.785,11.785,0,0,0-3.59-3.79,11.581,11.581,0,0,0-2.95-1.41,11.954,11.954,0,0,0-1.89-.46c-1.7-.18-3.39-.37-5.09-.55-.22-.03-.44-.05-.66-.07-.91-.11-1.82-.2-2.73-.3-.12-.01-.23-.03-.35-.04h-.01a.612.612,0,0,0,.05-.12c.09-.21.16-.4.22-.58.02-.07.04-.14.06-.2.06-.2.1-.36.13-.48.02,0,.05.01.07.01.88.09,1.75.19,2.63.28.1.01.21.03.31.04l6.67.72c.9.09,1.8.19,2.7.29a12.229,12.229,0,0,1,4.84,1.87,13.357,13.357,0,0,1,5.32,7.95A17.02,17.02,0,0,1,63,63Z" style="fill:#fc8e52"/><path d="M39.54,50.38c1.03.11,2.06.22,3.09.34l.03-.09.08-.29a4.509,4.509,0,0,0,.16-.59l.11-.42L40,49c-.03.12-.07.28-.13.48-.02.06-.04.13-.06.2-.06.18-.13.37-.22.58A.612.612,0,0,1,39.54,50.38Z" style="fill:#ed753a"/><path d="M40,54.85l-.14.41L39,57.85l-.11-.03-8.35-2.51a1.513,1.513,0,0,1-.74-.49,1.535,1.535,0,0,1-.29-1.49l.01-.05a1.548,1.548,0,0,1,1.22-1.03h.01a1.4,1.4,0,0,1,.7.03l.09.03c2.61.79,5.23,1.57,7.84,2.35C39.59,54.73,39.79,54.79,40,54.85Z" style="fill:#f9cebb"/><path d="M41.08,51.66l-.05.15-.16.47-.85,2.51-.02.06c-.21-.06-.41-.12-.62-.19-2.61-.78-5.23-1.56-7.84-2.35l-.09-.03a1.567,1.567,0,0,1-.73-.56,1.518,1.518,0,0,1-.21-1.39l.02-.07a1.583,1.583,0,0,1,1.9-1.01c.05.01.1.03.15.04l5.4,1.51h.01l1.79.5Z" style="fill:#f9cebb"/><path d="M63,63H52s-4-2-5-4a12.677,12.677,0,0,1-6,2c-1.71,0-4.73-1.3-7-2.42-.71-.36-1.36-.69-1.86-.96-.2-.11-.38-.21-.54-.29l.07-.16a1.564,1.564,0,0,1,1.89-.92l2.83.83,2.5.74.11.03.86-2.59.14-.41.02-.06.85-2.51.16-.47.05-.15-1.3-.36-1.79-.5h-.01l-5.4-1.51a1.519,1.519,0,0,1-.81-.54v-.01a1.543,1.543,0,0,1-.33-.95,1.687,1.687,0,0,1,.08-.5,1.561,1.561,0,0,1,1.94-.99l6.67,2.05.12-.49.33-1.31c.01-.03.02-.07.03-.1a1.554,1.554,0,0,1,2.03-.99l.97.36,3.6,1.36a4,4,0,0,1,2.39,2.48l.08.24.59,1.75.73,2.2,4,2,1.81,1,5.73,3.16A17.95,17.95,0,0,1,63,63Z" style="fill:#f9cebb"/><path d="M44.41,46.232l-.79,1.39-3.01-1.17a1.554,1.554,0,0,1,2.03-.99l.97.36Z" style="fill:#ffe0d2"/><path d="M45.07,49.74a.238.238,0,0,1-.24.17.249.249,0,0,1-.08-.01l-4.62-1.55.12-.49,4.67,1.57A.234.234,0,0,1,45.07,49.74Z" style="fill:#eabdad"/><path d="M41.78,52.32a.27.27,0,0,1-.24.17.235.235,0,0,1-.08-.02l-.59-.19-9.21-3.04a1.546,1.546,0,0,1,.77.01c.05.01.1.03.15.04a1.519,1.519,0,0,1-.81-.54l6.21,2.05h.01l3.04,1.01.59.19A.254.254,0,0,1,41.78,52.32Z" style="fill:#eabdad"/><path d="M40.62,55.25a.249.249,0,0,1-.24.17.17.17,0,0,1-.07-.01l-.45-.15-9.11-3.01a1.4,1.4,0,0,1,.7.03,1.567,1.567,0,0,1-.73-.56l9.3,3.07.44.14A.254.254,0,0,1,40.62,55.25Z" style="fill:#eabdad"/><path d="M38.89,57.82l-8.35-2.51a1.513,1.513,0,0,1-.74-.49Z" style="fill:#eabdad"/><path d="M40,58.45a.27.27,0,0,1-.24.17c-.03,0-.05-.01-.08-.01l-7.06-2.34a1.506,1.506,0,0,1,.94-.02l2.83.83,2.5.74.11.03.84.28A.258.258,0,0,1,40,58.45Z" style="fill:#eabdad"/><path d="M33.594,48.923l.857-1.813-1.78-.561s-1.088.858-.759,1.682Z" style="fill:#ffe0d2"/><path d="M32.737,51.989l.857-1.813-1.78-.561s-1.088.858-.759,1.682Z" style="fill:#ffe0d2"/><path d="M31.781,55.055l.857-1.813-1.78-.561s-1.088.857-.759,1.682Z" style="fill:#ffe0d2"/><path d="M34.55,57.43,34,58.58c-.71-.36-1.36-.69-1.86-.96a2.606,2.606,0,0,1,.63-.75Z" style="fill:#ffe0d2"/><path d="M52,63H48l-2-1.15-1.03.26a10.027,10.027,0,0,1-5.84-.3L32.51,59.4a1.455,1.455,0,0,1-.51-.31,1.551,1.551,0,0,1-.51-1.25,1.375,1.375,0,0,1,.1-.48l.01-.03c.16.08.34.18.54.29a1.024,1.024,0,0,0-.13.93l1.68.69.31-.66C36.27,59.7,39.29,61,41,61a12.677,12.677,0,0,0,6-2C48,61,52,63,52,63Z" style="fill:#eabdad"/><path d="M34,58.58l-.31.66-1.68-.69a1.024,1.024,0,0,1,.13-.93C32.64,57.89,33.29,58.22,34,58.58Z" style="fill:#f4cfc3"/><path d="M22,46a1,1,0,0,1-.624-.219l-4.4-3.52-1.486,1.1a.965.965,0,0,1-.147.09,2,2,0,0,1-2.683-.894l-2.553-5.106a1,1,0,1,1,1.789-.894l2.546,5.092,1.347-.994a2,2,0,0,1,2.437.049l4.4,3.519A1,1,0,0,1,22,46Z" style="fill:#e77973"/><path d="M11,60a1,1,0,0,1-.893-1.447l2.553-5.106a2,2,0,0,1,2.683-.894l2.461,1.23,3.49-3.49a1,1,0,0,1,1.414,1.414l-3.49,3.49a2,2,0,0,1-2.308.375l-2.461-1.23L11.9,59.447A1,1,0,0,1,11,60Z" style="fill:#e77973"/><path d="M19,48a.968.968,0,0,1-.243-.03l-7.624-1.906-3.11,1.679a1.013,1.013,0,0,1-.233.09,2.013,2.013,0,0,1-1.9-.527l-1.6-1.6a1,1,0,0,1,1.414-1.414L7.285,45.87l2.9-1.566a1.992,1.992,0,0,1,1.434-.18l7.624,1.906A1,1,0,0,1,19,48Z" style="fill:#e77973"/><path d="M34.73,33.56,33.87,29H31.63l-.86,4.56A1.179,1.179,0,0,0,31.87,35h1.76A1.179,1.179,0,0,0,34.73,33.56Z" style="fill:#eabdad"/><path d="M32,29v6h-.88a1.179,1.179,0,0,1-1.1-1.44L30.88,29Z" style="fill:#f4b89a"/><path d="M32.88,35H32V29h1.12l.86,4.56A1.179,1.179,0,0,1,32.88,35Z" style="fill:#efb297"/><path d="M31.75,35h-.63a1.179,1.179,0,0,1-1.1-1.44L30.88,29h.63l-.86,4.56A1.179,1.179,0,0,0,31.75,35Z" style="fill:#f7c4ad"/><path d="M32.248,35h.63a1.179,1.179,0,0,0,1.1-1.44L33.118,29h-.63l.86,4.56A1.179,1.179,0,0,1,32.248,35Z" style="fill:#efae8e"/><path d="M32,34.5V35h-.25a1.085,1.085,0,0,1-.94-.55,1.059,1.059,0,0,0,.31.05Z" style="fill:#efb297"/><path d="M31.75,35h-.63a1.179,1.179,0,0,1-1.1-1.44,1.212,1.212,0,0,0,.79.89A1.085,1.085,0,0,0,31.75,35Z" style="fill:#f4b89a"/><path d="M32.88,35h-.63a1.085,1.085,0,0,0,.94-.55,1.212,1.212,0,0,0,.79-.89A1.179,1.179,0,0,1,32.88,35Z" style="fill:#eaa688"/><path d="M33.19,34.45a1.085,1.085,0,0,1-.94.55H32v-.5h.88A1.059,1.059,0,0,0,33.19,34.45Z" style="fill:#efae8e"/><path d="M32,37.484v1a8,8,0,0,0-3.76.94.5.5,0,0,1-.48-.88A9.108,9.108,0,0,1,32,37.484Z" style="fill:#484749"/><path d="M36.44,39.224a.509.509,0,0,1-.44.26.546.546,0,0,1-.24-.06,7.959,7.959,0,0,0-3.76-.94v-1a9.012,9.012,0,0,1,4.24,1.06A.5.5,0,0,1,36.44,39.224Z" style="fill:#414043"/><path d="M27,28a1.011,1.011,0,0,1-.71-.29.99.99,0,0,1-.21-1.09,1.141,1.141,0,0,1,.21-.33,1,1,0,0,1,1.09-.21,1.155,1.155,0,0,1,.33.21,1.141,1.141,0,0,1,.21.33A.838.838,0,0,1,28,27a.99.99,0,0,1-1,1Z" style="fill:#484749"/><path d="M37,28a.99.99,0,0,1-.92-1.38,1.021,1.021,0,0,1,.21-.33,1.047,1.047,0,0,1,1.42,0,1.021,1.021,0,0,1,.21.33.99.99,0,0,1-.21,1.09,1.177,1.177,0,0,1-.33.21A1.015,1.015,0,0,1,37,28Z" style="fill:#414043"/><path d="M23,27.5a.5.5,0,0,1-.108-.989,9.445,9.445,0,0,0,5.7-3.8.5.5,0,1,1,.819.574,10.456,10.456,0,0,1-6.3,4.2A.512.512,0,0,1,23,27.5Z" style="fill:#565556"/><path d="M41,27.5a.512.512,0,0,1-.109-.012,10.448,10.448,0,0,1-6.3-4.2.5.5,0,1,1,.819-.574,9.445,9.445,0,0,0,5.7,3.8A.5.5,0,0,1,41,27.5Z" style="fill:#484749"/></g></svg>