<?xml version="1.0" ?><svg viewBox="0 0 64 64" xmlns="http://www.w3.org/2000/svg"><title/><g id="Icons"><path d="M59.79,9.5,58.3,10.99V11c-.08-.06-.16-.11-.24-.16-.01-.01-.02-.01-.04-.02-.1-.06-.2-.12-.3-.17-.06-.03-.12-.06-.19-.09-.05-.02-.11-.05-.17-.07a3.8,3.8,0,0,0-.47-.18,2.643,2.643,0,0,0-.46-.13,1.244,1.244,0,0,0-.16-.04c-.02-.03-.03-.06-.05-.09A5.992,5.992,0,0,0,51,7h4a5.115,5.115,0,0,1,.56.03,6.367,6.367,0,0,1,1.06.19c.16.05.32.1.47.16a4.987,4.987,0,0,1,.53.23c.16.08.32.17.48.26a4.27,4.27,0,0,1,.44.3,3.289,3.289,0,0,1,.41.33H58a.5.5,0,0,0,0,1Z" style="fill:#5d99af"/><path d="M60.81,11.5h-1.6l.43-.43.73-.74a2.875,2.875,0,0,1,.18.4c.03.06.05.12.08.19a4.677,4.677,0,0,1,.17.53C60.8,11.47,60.81,11.48,60.81,11.5Z" style="fill:#5d99af"/><path d="M61,13v3a5.905,5.905,0,0,0-.78-2.95,2.922,2.922,0,0,0-.24-.37.7.7,0,0,0-.1-.16c0-.01-.01-.01-.02-.02h1.12C60.99,12.67,61,12.83,61,13Z" style="fill:#5d99af"/><path d="M13,7a5.992,5.992,0,0,0-5.22,3.05c-.02.03-.03.06-.05.09a5.979,5.979,0,0,0-3.95,2.91A5.905,5.905,0,0,0,3,16V13a5.905,5.905,0,0,1,.78-2.95A5.992,5.992,0,0,1,9,7Z" style="fill:#5d99af"/><path d="M60.98,12.5H58a.5.5,0,0,1-.46-.31.474.474,0,0,1,.11-.54L58.3,11v-.01L59.79,9.5H58a.5.5,0,0,1,0-1h.95a3.289,3.289,0,0,0-.41-.33,4.27,4.27,0,0,0-.44-.3c-.16-.09-.32-.18-.48-.26a4.987,4.987,0,0,0-.53-.23c-.15-.06-.31-.11-.47-.16a6.367,6.367,0,0,0-1.06-.19A5.115,5.115,0,0,0,55,7H32.25V41H55a5.992,5.992,0,0,0,5.22-3.05A5.905,5.905,0,0,0,61,35V13C61,12.83,60.99,12.67,60.98,12.5ZM57.5,17.95a1,1,0,0,0-.04.25v.01a.01.01,0,0,1-.01.01.5.5,0,0,1-.45.28H55a.5.5,0,0,1-.42-.78l1.49-2.22H55a.5.5,0,0,1,0-1h2a.5.5,0,0,1,.42.78l-.42.63L55.93,17.5H57a.5.5,0,0,1,.5.44Zm3.3-6.5a4.677,4.677,0,0,0-.17-.53c-.03-.07-.05-.13-.08-.19a2.875,2.875,0,0,0-.18-.4l-.73.74-.43.43h1.6C60.81,11.48,60.8,11.47,60.8,11.45Z" style="fill:#4889a0"/><path d="M60.37,10.33l-.73.74c.18-.36.38-.7.58-1.02C60.27,10.14,60.32,10.24,60.37,10.33Z" style="fill:#5d99af"/><path d="M61,16V32a5.905,5.905,0,0,1-.78,2.95,4.9,4.9,0,0,1-.45.67,1.541,1.541,0,0,1-.23.29,2.271,2.271,0,0,1-.26.28.231.231,0,0,1-.07.07,2.16,2.16,0,0,1-.27.25,5.172,5.172,0,0,1-1.06.74,3.047,3.047,0,0,1-.4.21,5.542,5.542,0,0,1-1.21.4A5.9,5.9,0,0,0,57,35V18.5a.5.5,0,0,0,.45-.28.01.01,0,0,0,.01-.01V18.2a1,1,0,0,1,.04-.25v-.01a.5.5,0,0,0-.5-.44V15.91l.42-.63A.5.5,0,0,0,57,14.5V13a5.9,5.9,0,0,0-.73-2.86,1.244,1.244,0,0,1,.16.04,3.471,3.471,0,0,1,.46.13,3.8,3.8,0,0,1,.47.18c.06.02.12.05.17.07.07.03.13.06.19.09.1.05.2.11.3.17.02.01.03.01.04.02.08.05.16.1.24.16l-.65.65a.474.474,0,0,0-.11.54.5.5,0,0,0,.46.31h1.86c.01.01.02.01.02.02a.864.864,0,0,1,.1.16,2.922,2.922,0,0,1,.24.37A5.905,5.905,0,0,1,61,16Z" style="fill:#3a85a0"/><polygon points="55.93 17.5 57 15.91 57 17.5 55.93 17.5" style="fill:#4889a0"/><path d="M57,13v1.5H55a.5.5,0,0,0,0,1h1.07l-1.49,2.22a.5.5,0,0,0,.42.78h2V35a5.9,5.9,0,0,1-.73,2.86A5.954,5.954,0,0,1,55,38H47.12a.076.076,0,0,0,.02-.04,6.023,6.023,0,0,0,.3-.56,7.851,7.851,0,0,0,.42-.88c.08-.18.16-.37.23-.56a.578.578,0,0,0,.05-.14c.06-.16.12-.32.17-.48.07-.22.14-.45.21-.68.07-.26.13-.53.19-.8.07-.34.13-.68.17-1.03.03-.25.06-.49.07-.74A9.827,9.827,0,0,0,49,31V30h1a2.772,2.772,0,0,0,1-.18A2.968,2.968,0,0,0,53,27V24a1,1,0,0,0-1-1H49V19c0-.11,0-.23-.01-.34,0-.19-.01-.38-.02-.57a1.948,1.948,0,0,0-.02-.25,1.948,1.948,0,0,0-.02-.25v-.01a.435.435,0,0,0,.07.06A19.75,19.75,0,0,0,51,19V16a13.153,13.153,0,0,0-.2-2.28,13.34,13.34,0,0,0-1.14-3.56,1.194,1.194,0,0,0-.08-.16H55a4.49,4.49,0,0,1,.64.04,5.583,5.583,0,0,1,.59.09.076.076,0,0,1,.04.01A5.9,5.9,0,0,1,57,13Z" style="fill:#4889a0"/><path d="M53,24v3a2.968,2.968,0,0,1-2,2.82A2.772,2.772,0,0,1,50,30H49v1a9.827,9.827,0,0,1-.05,1.09c-.01.25-.04.49-.07.74-.04.35-.1.69-.17,1.03-.06.27-.12.54-.19.8-.07.23-.14.46-.21.68-.05.16-.11.32-.17.48a.578.578,0,0,1-.05.14c-.07.19-.15.38-.23.56a7.851,7.851,0,0,1-.42.88,6.023,6.023,0,0,1-.3.56.076.076,0,0,1-.02.04H32.25V10H49.58a1.194,1.194,0,0,1,.08.16,13.34,13.34,0,0,1,1.14,3.56A13.153,13.153,0,0,1,51,16v3a19.75,19.75,0,0,1-2-1.36.435.435,0,0,1-.07-.06v.01a1.948,1.948,0,0,1,.02.25,1.948,1.948,0,0,1,.02.25c.01.19.02.38.02.57.01.11.01.23.01.34v4h3A1,1,0,0,1,53,24Z" style="fill:#3a85a0"/><path d="M7,35a5.9,5.9,0,0,0,.73,2.86,5.979,5.979,0,0,1-3.95-2.91A5.905,5.905,0,0,1,3,32V16a5.905,5.905,0,0,1,.78-2.95,5.979,5.979,0,0,1,3.95-2.91A5.9,5.9,0,0,0,7,13Z" style="fill:#72bbcc"/><path d="M32.25,10V38H9a5.954,5.954,0,0,1-1.27-.14A5.9,5.9,0,0,1,7,35V13a5.9,5.9,0,0,1,.73-2.86A5.954,5.954,0,0,1,9,10Z" style="fill:#5d99af"/><path d="M13,41H9a5.992,5.992,0,0,1-5.22-3.05A5.905,5.905,0,0,1,3,35V32a5.905,5.905,0,0,0,.78,2.95,5.979,5.979,0,0,0,3.95,2.91c.02.03.03.06.05.09A5.992,5.992,0,0,0,13,41Z" style="fill:#5d99af"/><path d="M32.25,38v3H13a5.992,5.992,0,0,1-5.22-3.05c-.02-.03-.03-.06-.05-.09A5.954,5.954,0,0,0,9,38Z" style="fill:#4889a0"/><path d="M47.12,38c-.01.02-.03.05-.04.07-.15.25-.3.5-.47.74-.18.27-.36.53-.56.78a8.235,8.235,0,0,1-.55.65,1.059,1.059,0,0,1-.1.12c-.2.22-.41.43-.62.64H32.25V38Z" style="fill:#2b81a0"/><path d="M56.27,37.86c-.02.03-.03.06-.05.09A5.992,5.992,0,0,1,51,41H44.78c.21-.21.42-.42.62-.64a1.059,1.059,0,0,0,.1-.12,8.235,8.235,0,0,0,.55-.65c.2-.25.38-.51.56-.78.17-.24.32-.49.47-.74.01-.02.03-.05.04-.07H55A5.954,5.954,0,0,0,56.27,37.86Z" style="fill:#3a85a0"/><path d="M61,32v3a5.905,5.905,0,0,1-.78,2.95A5.992,5.992,0,0,1,55,41H51a5.992,5.992,0,0,0,5.22-3.05c.02-.03.03-.06.05-.09a5.979,5.979,0,0,0,3.95-2.91A5.905,5.905,0,0,0,61,32Z" style="fill:#2b81a0"/><path d="M49.58,10H32.25V7H47.59l.03.03c.33.39.63.78.92,1.2a12.71,12.71,0,0,1,.78,1.27C49.41,9.67,49.5,9.83,49.58,10Z" style="fill:#4889a0"/><path d="M32.25,7v3H9a5.992,5.992,0,0,0-5.22,3.05A5.905,5.905,0,0,0,3,16V13a5.905,5.905,0,0,1,.78-2.95A5.992,5.992,0,0,1,9,7Z" style="fill:#6bafc1"/><path d="M59.79,9.5,58.3,10.99l-.24-.15c-.01-.01-.02-.01-.04-.02-.1-.06-.2-.12-.3-.17-.06-.03-.12-.06-.19-.09-.05-.02-.11-.05-.17-.07a3.8,3.8,0,0,0-.47-.18,2.643,2.643,0,0,0-.46-.13,1.244,1.244,0,0,0-.16-.04.076.076,0,0,0-.04-.01,4.009,4.009,0,0,0-.59-.09,1.733,1.733,0,0,0-.32-.03C55.21,10,55.11,10,55,10H49.58c-.08-.17-.17-.33-.26-.5a12.71,12.71,0,0,0-.78-1.27c-.29-.42-.59-.81-.92-1.2L47.59,7H55a5.115,5.115,0,0,1,.56.03,6.367,6.367,0,0,1,1.06.19c.16.05.32.1.47.16a4.987,4.987,0,0,1,.53.23c.16.08.32.17.48.26a4.27,4.27,0,0,1,.44.3,3.289,3.289,0,0,1,.41.33H58a.5.5,0,0,0,0,1Z" style="fill:#5d99af"/><path d="M60.81,11.5h-1.6l.43-.43.73-.74a2.875,2.875,0,0,1,.18.4c.03.06.05.12.08.19a4.677,4.677,0,0,1,.17.53C60.8,11.47,60.81,11.48,60.81,11.5Z" style="fill:#5d99af"/><path d="M61,13v3a5.905,5.905,0,0,0-.78-2.95,2.922,2.922,0,0,0-.24-.37.7.7,0,0,0-.1-.16c0-.01-.01-.01-.02-.02h1.12C60.99,12.67,61,12.83,61,13Z" style="fill:#5d99af"/><path d="M7,24c0,5.78-1.27,10.88-3.22,13.95A5.905,5.905,0,0,1,3,35V13a5.905,5.905,0,0,1,.78-2.95C5.73,13.12,7,18.22,7,24Z" style="fill:#b4d3e0"/><path d="M60.81,11.5H59.42c.07-.15.14-.29.22-.43l.73-.74a2.875,2.875,0,0,1,.18.4c.03.06.05.12.08.19a4.677,4.677,0,0,1,.17.53C60.8,11.47,60.81,11.48,60.81,11.5Z" style="fill:#a4c9d6"/><path d="M61,13V35a5.905,5.905,0,0,1-.78,2.95,13.193,13.193,0,0,1-.94-1.76A30.285,30.285,0,0,1,57,24a36.528,36.528,0,0,1,.45-5.78.01.01,0,0,0,.01-.01V18.2a1,1,0,0,1,.04-.25v-.01a25.253,25.253,0,0,1,1.48-5.44h2C60.99,12.67,61,12.83,61,13Z" style="fill:#a4c9d6"/><path d="M32,5V45H31A14,14,0,0,1,17,31V19c0-.11,0-.23.01-.34A14,14,0,0,1,31,5Z" style="fill:#ffd5c0"/><path d="M32,5v.04A13.97,13.97,0,0,0,19.03,18.28c-.6.12-1.19.24-1.76.34-.09.02-.18.03-.26.04A14,14,0,0,1,31,5Z" style="fill:#ffe0d2"/><path d="M26.98,43.64A13.916,13.916,0,0,0,32,44.96V45H31A14,14,0,0,1,17,31V20.67c.09-.02.18-.03.27-.05.56-.1,1.14-.21,1.73-.34V31A13.991,13.991,0,0,0,26.98,43.64Z" style="fill:#ffe0d2"/><path d="M47,19V31A13.986,13.986,0,0,1,33,45H32V5h1A14.008,14.008,0,0,1,46.93,17.59,13.052,13.052,0,0,1,47,19Z" style="fill:#f9cebb"/><path d="M41.32,9.54A13.97,13.97,0,0,0,32,5.04V5h1A14,14,0,0,1,46.92,17.58c-.07-.05-.12-.1-.19-.15a12.241,12.241,0,0,1-2.3-2.37.01.01,0,0,1-.01-.01,13.9,13.9,0,0,0-3.1-5.51Z" style="fill:#f2c8b6"/><path d="M47,19.64V31A14,14,0,0,1,33,45H32v-.04A13.985,13.985,0,0,0,45,31V19c0-.11,0-.23-.01-.34-.01-.32-.03-.65-.06-.96a12.535,12.535,0,0,0,1.8,1.73C46.82,19.5,46.9,19.57,47,19.64Z" style="fill:#f2c8b6"/><path d="M19.03,18.28c-.01.12-.02.25-.02.38-.01.11-.01.23-.01.34v1.28c-.59.13-1.17.24-1.73.34-.09.02-.18.03-.27.05V19c0-.11,0-.23.01-.34.08-.01.17-.02.26-.04C17.84,18.52,18.43,18.4,19.03,18.28Z" style="fill:#f4cfc1"/><path d="M32,14.29v2c-1.42.59-2.93,1.17-4.53,1.71A70.382,70.382,0,0,1,19,20.28V19c0-.11,0-.23.01-.34,0-.13.01-.26.02-.38A70.009,70.009,0,0,0,27.47,16C29.07,15.46,30.58,14.88,32,14.29Z" style="fill:#f2c8b6"/><path d="M47,19v.64c-.1-.07-.18-.14-.27-.21a12.535,12.535,0,0,1-1.8-1.73,13.538,13.538,0,0,0-.5-2.64,12.241,12.241,0,0,0,2.3,2.37c.07.05.12.1.19.15.01.08.02.17.03.26a1.948,1.948,0,0,1,.02.25c.01.19.02.38.02.57C47,18.77,47,18.89,47,19Z" style="fill:#ddb3a6"/><path d="M44.43,15.06a13.538,13.538,0,0,1,.5,2.64,8.243,8.243,0,0,1-1.6-2.7s-.08-.23-1.13-4A67.745,67.745,0,0,1,32,16.29v-2a67.214,67.214,0,0,0,9.32-4.75c.3-.18.6-.36.88-.54.36,1.29.61,2.17.78,2.76.32,1.14.35,1.24.35,1.24a7.635,7.635,0,0,0,1.09,2.05A.01.01,0,0,0,44.43,15.06Z" style="fill:#eabdad"/><path d="M46.93,17.59a1.948,1.948,0,0,1,.02.25c-.01-.09-.02-.18-.03-.26Z" style="fill:#eabdad"/><path d="M17,23v7H16a2.772,2.772,0,0,1-1-.18A2.968,2.968,0,0,1,13,27V24a1,1,0,0,1,1-1Z" style="fill:#ffe0d2"/><path d="M17,23v7a2.772,2.772,0,0,1-1-.18A2.968,2.968,0,0,1,14,27V24a1,1,0,0,1,1-1Z" style="fill:#ffd5c0"/><path d="M17,29a1.753,1.753,0,0,1-.638-.113A1.986,1.986,0,0,1,15,27V24h2Z" style="fill:#f9c9b4"/><path d="M47,23v7h1a2.772,2.772,0,0,0,1-.18A2.968,2.968,0,0,0,51,27V24a1,1,0,0,0-1-1Z" style="fill:#ffd5c0"/><path d="M47,23v7a2.772,2.772,0,0,0,1-.18A2.968,2.968,0,0,0,50,27V24a1,1,0,0,0-1-1Z" style="fill:#f9cebb"/><path d="M47,29a1.758,1.758,0,0,0,.639-.113A1.985,1.985,0,0,0,49,27V24H47Z" style="fill:#f4b89a"/><path d="M32,48v7c-.02,0-.39,0-.61-.02-.12-.01-.24-.02-.35-.04a.986.986,0,0,1-.24-.03,7.7,7.7,0,0,1-4.51-1.96c-.16-.14-.3-.29-.44-.43a7.982,7.982,0,0,1-.8-1.03,4.231,4.231,0,0,1-.24-.4c.13-.38.28-.84.43-1.35.24-.76.48-1.64.69-2.52a16.155,16.155,0,0,0,3.07.66A16.647,16.647,0,0,0,31,48Z" style="fill:#ffd5c0"/><path d="M32,45v3H31a16.647,16.647,0,0,1-2-.12,16.155,16.155,0,0,1-3.07-.66c.21-.9.41-1.89.58-2.97a12.924,12.924,0,0,0,2.49.6A13.168,13.168,0,0,0,31,45Z" style="fill:#ffd5c0"/><path d="M25.93,47.22c-.21.88-.45,1.76-.69,2.52-.15.51-.3.97-.43,1.35-.06-.11-.12-.22-.17-.32a5.45,5.45,0,0,1-.23-.51c-.09-.21-.16-.4-.22-.58-.02-.07-.04-.14-.06-.2-.06-.2-.1-.36-.13-.48.14-.78.29-1.55.43-2.33A15.816,15.816,0,0,0,25.93,47.22Z" style="fill:#ffe0d2"/><path d="M26.51,44.25c-.17,1.08-.37,2.07-.58,2.97a15.816,15.816,0,0,1-1.5-.55c.18-1.01.36-2.02.55-3.03a10.254,10.254,0,0,0,.96.41A4.3,4.3,0,0,0,26.51,44.25Z" style="fill:#f4cfc3"/><path d="M32,45v3H31a16.647,16.647,0,0,1-2-.12,16.155,16.155,0,0,1-3.07-.66c.21-.9.41-1.89.58-2.97a12.924,12.924,0,0,0,2.49.6A13.168,13.168,0,0,0,31,45Z" style="fill:#f2c8b6"/><path d="M32,48v7c.02,0,.39,0,.61-.02.12-.01.24-.02.35-.04a.986.986,0,0,0,.24-.03,7.7,7.7,0,0,0,4.51-1.96c.16-.14.3-.29.44-.43a7.982,7.982,0,0,0,.8-1.03,4.231,4.231,0,0,0,.24-.4c-.13-.38-.28-.84-.43-1.35-.24-.76-.48-1.64-.69-2.52a16.155,16.155,0,0,1-3.07.66A16.647,16.647,0,0,1,33,48Z" style="fill:#f9cebb"/><path d="M32,45v3h1a16.647,16.647,0,0,0,2-.12,16.155,16.155,0,0,0,3.07-.66c-.21-.9-.41-1.89-.58-2.97a12.924,12.924,0,0,1-2.49.6A13.168,13.168,0,0,1,33,45Z" style="fill:#ffd5c0"/><path d="M38.07,47.22c.21.88.45,1.76.69,2.52.15.51.3.97.43,1.35.06-.11.12-.22.17-.32a5.45,5.45,0,0,0,.23-.51c.09-.21.16-.4.22-.58.02-.07.04-.14.06-.2.06-.2.1-.36.13-.48-.14-.78-.29-1.55-.43-2.33A15.816,15.816,0,0,1,38.07,47.22Z" style="fill:#f2c8b6"/><path d="M32,48v7c-.02,0-.39,0-.61-.02-.12-.01-.24-.02-.35-.04a.986.986,0,0,1-.24-.03,7.7,7.7,0,0,1-4.51-1.96c-.16-.14-.3-.29-.44-.43a7.982,7.982,0,0,1-.8-1.03,4.231,4.231,0,0,1-.24-.4c.13-.38.28-.84.43-1.35.24-.76.48-1.64.69-2.52a16.155,16.155,0,0,0,3.07.66A16.647,16.647,0,0,0,31,48Z" style="fill:#ffd5c0"/><path d="M25.93,47.22c-.21.88-.45,1.76-.69,2.52-.15.51-.3.97-.43,1.35-.06-.11-.12-.22-.17-.32a5.45,5.45,0,0,1-.23-.51c-.09-.21-.16-.4-.22-.58-.02-.07-.04-.14-.06-.2-.06-.2-.1-.36-.13-.48.14-.78.29-1.55.43-2.33A15.816,15.816,0,0,0,25.93,47.22Z" style="fill:#ffe0d2"/><path d="M32,48v7c.02,0,.39,0,.61-.02.12-.01.24-.02.35-.04a.986.986,0,0,0,.24-.03,7.7,7.7,0,0,0,4.51-1.96c.16-.14.3-.29.44-.43a7.982,7.982,0,0,0,.8-1.03,4.231,4.231,0,0,0,.24-.4c-.13-.38-.28-.84-.43-1.35-.24-.76-.48-1.64-.69-2.52a16.155,16.155,0,0,1-3.07.66A16.647,16.647,0,0,1,33,48Z" style="fill:#f9cebb"/><path d="M38.07,47.22c.21.88.45,1.76.69,2.52.15.51.3.97.43,1.35.06-.11.12-.22.17-.32a5.45,5.45,0,0,0,.23-.51c.09-.21.16-.4.22-.58.02-.07.04-.14.06-.2.06-.2.1-.36.13-.48-.14-.78-.29-1.55-.43-2.33A15.816,15.816,0,0,1,38.07,47.22Z" style="fill:#f2c8b6"/><path d="M37.49,44.25c.17,1.08.37,2.07.58,2.97a15.816,15.816,0,0,0,1.5-.55c-.18-1.01-.36-2.02-.55-3.03a10.254,10.254,0,0,1-.96.41A4.3,4.3,0,0,1,37.49,44.25Z" style="fill:#e5b6a8"/><path d="M32,45v3h1a16.647,16.647,0,0,0,2-.12,16.155,16.155,0,0,0,3.07-.66c-.21-.9-.41-1.89-.58-2.97a12.924,12.924,0,0,1-2.49.6A13.168,13.168,0,0,1,33,45Z" style="fill:#eabdad"/><path d="M34.73,33.56,33.87,29H31.63l-.86,4.56A1.179,1.179,0,0,0,31.87,35h1.76A1.179,1.179,0,0,0,34.73,33.56Z" style="fill:#eabdad"/><path d="M32,29v6h-.88a1.179,1.179,0,0,1-1.1-1.44L30.88,29Z" style="fill:#f4b89a"/><path d="M32.88,35H32V29h1.12l.86,4.56A1.179,1.179,0,0,1,32.88,35Z" style="fill:#efb297"/><path d="M31.75,35h-.63a1.179,1.179,0,0,1-1.1-1.44L30.88,29h.63l-.86,4.56A1.179,1.179,0,0,0,31.75,35Z" style="fill:#f7c4ad"/><path d="M32.248,35h.63a1.179,1.179,0,0,0,1.1-1.44L33.118,29h-.63l.86,4.56A1.179,1.179,0,0,1,32.248,35Z" style="fill:#efae8e"/><path d="M32,34.5V35h-.25a1.085,1.085,0,0,1-.94-.55,1.059,1.059,0,0,0,.31.05Z" style="fill:#efb297"/><path d="M31.75,35h-.63a1.179,1.179,0,0,1-1.1-1.44,1.212,1.212,0,0,0,.79.89A1.085,1.085,0,0,0,31.75,35Z" style="fill:#f4b89a"/><path d="M32.88,35h-.63a1.085,1.085,0,0,0,.94-.55,1.212,1.212,0,0,0,.79-.89A1.179,1.179,0,0,1,32.88,35Z" style="fill:#eaa688"/><path d="M33.19,34.45a1.085,1.085,0,0,1-.94.55H32v-.5h.88A1.059,1.059,0,0,0,33.19,34.45Z" style="fill:#efae8e"/><path d="M19.03,18.28c-.01.12-.02.25-.02.38-.01.11-.01.23-.01.34v-.71A.037.037,0,0,1,19.03,18.28Z" style="fill:#f4cfc1"/><rect height="1" style="fill:#565556" width="2" x="45" y="22"/><path d="M47,19v.64c-.1-.07-.18-.14-.27-.21A12.588,12.588,0,0,1,45,17.78v-2a13.237,13.237,0,0,0,1.73,1.65c.07.05.12.1.19.15.01.08.02.17.03.26a1.948,1.948,0,0,1,.02.25c.01.19.02.38.02.57C47,18.77,47,18.89,47,19Z" style="fill:#484749"/><path d="M47,19.64v1.87H45V17.78a12.588,12.588,0,0,0,1.73,1.65C46.82,19.5,46.9,19.57,47,19.64Z" style="fill:#565556"/><rect height="1" style="fill:#666" width="2" x="17" y="22"/><path d="M17.27,20.62c.56-.1,1.14-.21,1.73-.34v1.23H17v-.84C17.09,20.65,17.18,20.64,17.27,20.62Z" style="fill:#666"/><path d="M19,18.29v1.99c-.59.13-1.17.24-1.73.34-.09.02-.18.03-.27.05V19c0-.11,0-.23.01-.34.08-.01.17-.02.26-.04C17.83,18.52,18.41,18.4,19,18.29Z" style="fill:#565556"/><path d="M32,1V14.29c-1.42.59-2.93,1.17-4.53,1.71a71.468,71.468,0,0,1-10.2,2.62c-.79.15-1.54.27-2.27.38V16C15,7.72,22.62,1,32,1Z" style="fill:#484749"/><path d="M32,1v.11C23.56,1.98,17,8.32,17,16v2.67c-.69.13-1.35.23-2,.33V16C15,7.72,22.62,1,32,1Z" style="fill:#565556"/><path d="M49,16v3a19.75,19.75,0,0,1-2-1.36c-.1-.07-.18-.14-.27-.21A9.887,9.887,0,0,1,43.33,13s-.08-.23-1.13-4A67.745,67.745,0,0,1,32,14.29V1A18.043,18.043,0,0,1,44.58,5.92c.36.36.71.73,1.04,1.11s.63.78.92,1.2a14.882,14.882,0,0,1,.78,1.27c.12.22.24.44.34.66a13.34,13.34,0,0,1,1.14,3.56A13.153,13.153,0,0,1,49,16Z" style="fill:#414043"/><path d="M49,16v3a19.75,19.75,0,0,1-2-1.36V16C47,8.32,40.44,1.98,32,1.11V1A18.043,18.043,0,0,1,44.58,5.92a13.541,13.541,0,0,1,1.04,1.11,11.917,11.917,0,0,1,.92,1.2,12.71,12.71,0,0,1,.78,1.27c.12.22.24.44.34.66a13.34,13.34,0,0,1,1.14,3.56A13.153,13.153,0,0,1,49,16Z" style="fill:#3d3d3d"/><path d="M32,55v8H1c.07-.98.6-7.35,5.78-10.79a12.229,12.229,0,0,1,4.84-1.87Q17.815,49.665,24,49c.03.12.07.28.13.48.02.06.04.13.06.2.06.18.13.37.22.58a5.45,5.45,0,0,0,.23.51c.05.1.11.21.17.32a4.231,4.231,0,0,0,.24.4,7.982,7.982,0,0,0,.8,1.03c.14.14.28.29.44.43a7.7,7.7,0,0,0,4.51,1.96.986.986,0,0,0,.24.03c.11.02.23.03.35.04C31.61,55,31.98,55,32,55Z" style="fill:#febd73"/><path d="M32,63H63c-.07-.98-.6-7.35-5.78-10.79a12.229,12.229,0,0,0-4.84-1.87L40,49a7.587,7.587,0,0,1-6.8,5.91.986.986,0,0,1-.24.03c-.11.02-.23.03-.35.04C32.4,55,32.02,55,32,55Z" style="fill:#fab06b"/><path d="M24.41,50.26a.612.612,0,0,0,.05.12l-8.84.96a12.229,12.229,0,0,0-4.84,1.87C6.53,56.04,5.41,60.84,5.11,63H1c.07-.98.6-7.35,5.78-10.79a12.229,12.229,0,0,1,4.84-1.87Q17.815,49.665,24,49c.03.12.07.28.13.48.02.06.04.13.06.2C24.25,49.86,24.32,50.05,24.41,50.26Z" style="fill:#fedc96"/><path d="M24.46,50.38c-1.03.11-2.06.22-3.09.34l-.03-.09-.08-.29a4.509,4.509,0,0,1-.16-.59l-.11-.42L24,49c.03.12.07.28.13.48.02.06.04.13.06.2.06.18.13.37.22.58A.612.612,0,0,0,24.46,50.38Z" style="fill:#febd73"/><path d="M32,55v3c-.03,0-.56,0-.88-.03-.13-.01-.25-.03-.37-.04a2.348,2.348,0,0,1-.37-.05,10.584,10.584,0,0,1-6.11-2.71c-.13-.12-.3-.28-.46-.44l-.18-.19a11.261,11.261,0,0,1-1.1-1.42c-.1-.15-.24-.39-.36-.61-.07-.13-.15-.27-.22-.4-.12-.25-.23-.5-.32-.73-.12-.27-.21-.51-.29-.75l-.08-.29a4.509,4.509,0,0,1-.16-.59l-.11-.42L24,49c.03.12.07.28.13.48.02.06.04.13.06.2.06.18.13.37.22.58a5.45,5.45,0,0,0,.23.51c.05.1.11.21.17.32a4.231,4.231,0,0,0,.24.4,7.982,7.982,0,0,0,.8,1.03c.14.14.28.29.44.43a7.7,7.7,0,0,0,4.51,1.96.986.986,0,0,0,.24.03c.11.02.23.03.35.04C31.61,55,31.98,55,32,55Z" style="fill:#fab06b"/><path d="M24.46,50.38c-1.03.11-2.06.22-3.09.34l-.03-.09-.08-.29a4.509,4.509,0,0,1-.16-.59l-.11-.42L24,49c.03.12.07.28.13.48.02.06.04.13.06.2.06.18.13.37.22.58A.612.612,0,0,0,24.46,50.38Z" style="fill:#f9ba85"/><path d="M43.01,49.33l-.1.4a5.926,5.926,0,0,1-.17.61l-.08.29c-.08.24-.17.48-.29.75a7.581,7.581,0,0,1-.33.73c-.06.13-.14.27-.22.42-.11.2-.25.44-.4.66a10.58,10.58,0,0,1-1.05,1.35l-.18.19c-.16.16-.33.32-.5.48a10.551,10.551,0,0,1-6.07,2.67,2.348,2.348,0,0,1-.37.05c-.12.01-.25.03-.37.04-.32.03-.85.03-.88.03V55c.02,0,.39,0,.61-.02.12-.01.24-.02.35-.04a.986.986,0,0,0,.24-.03A7.59,7.59,0,0,0,40,49Z" style="fill:#fc8e52"/><path d="M39.59,50.26a.612.612,0,0,1-.05.12l8.84.96a12.229,12.229,0,0,1,4.84,1.87c4.25,2.83,5.37,7.63,5.67,9.79H63c-.07-.98-.6-7.35-5.78-10.79a12.229,12.229,0,0,0-4.84-1.87Q46.185,49.665,40,49c-.03.12-.07.28-.13.48-.02.06-.04.13-.06.2C39.75,49.86,39.68,50.05,39.59,50.26Z" style="fill:#fc8e52"/><path d="M39.54,50.38c1.03.11,2.06.22,3.09.34l.03-.09.08-.29a4.509,4.509,0,0,0,.16-.59l.11-.42L40,49c-.03.12-.07.28-.13.48-.02.06-.04.13-.06.2-.06.18-.13.37-.22.58A.612.612,0,0,1,39.54,50.38Z" style="fill:#ed753a"/><path d="M23,27.5a.5.5,0,0,1-.108-.988,9.451,9.451,0,0,0,5.7-3.8.5.5,0,0,1,.819.574,10.448,10.448,0,0,1-6.3,4.2A.512.512,0,0,1,23,27.5Z" style="fill:#484749"/><path d="M41,27.5a.51.51,0,0,1-.108-.012,10.448,10.448,0,0,1-6.3-4.2.5.5,0,0,1,.819-.574,9.444,9.444,0,0,0,5.7,3.8A.5.5,0,0,1,41,27.5Z" style="fill:#414043"/><path d="M32,37.5v1a8,8,0,0,0-3.76.94.5.5,0,0,1-.48-.88A9.108,9.108,0,0,1,32,37.5Z" style="fill:#484749"/><path d="M36.44,39.24a.509.509,0,0,1-.44.26.533.533,0,0,1-.24-.06A7.971,7.971,0,0,0,32,38.5v-1a9.012,9.012,0,0,1,4.24,1.06A.5.5,0,0,1,36.44,39.24Z" style="fill:#414043"/><path d="M55,19.5H53a.5.5,0,0,1-.416-.777L54.066,16.5H53a.5.5,0,0,1,0-1h2a.5.5,0,0,1,.441.264.5.5,0,0,1-.025.513L53.935,18.5H55a.5.5,0,0,1,0,1Z" style="fill:#fedc96"/><path d="M57.5,17.94v.01a1,1,0,0,0-.04.25v.01a.01.01,0,0,1-.01.01.5.5,0,0,1-.45.28v-1A.5.5,0,0,1,57.5,17.94Z" style="fill:#2b81a0"/><path d="M57.42,15.28l-.42.63V14.5a.5.5,0,0,1,.42.78Z" style="fill:#2b81a0"/><path d="M57,15.91,55.93,17.5H57v1H55a.5.5,0,0,1-.42-.78l1.49-2.22H55a.5.5,0,0,1,0-1h2Z" style="fill:#3a85a0"/><path d="M57.5,17.95V18a.448.448,0,0,1-.04.2A1,1,0,0,1,57.5,17.95Z" style="fill:#fedc96"/><path d="M59.28,11.81a7.175,7.175,0,0,0-.3.69H58a.5.5,0,0,1-.46-.31.474.474,0,0,1,.11-.54L58.3,11c.02,0,.03.01.05.03a.219.219,0,0,1,.05.03.55.55,0,0,1,.09.07c.07.05.14.1.21.16A4.782,4.782,0,0,1,59.28,11.81Z" style="fill:#2b81a0"/><path d="M59.86,12.5h-.88a7.175,7.175,0,0,1,.3-.69c.07.07.14.14.21.22.1.12.2.24.3.37A.607.607,0,0,1,59.86,12.5Z" style="fill:#5d99af"/><path d="M60.98,12.46v.04H59.86a.607.607,0,0,0-.07-.1c-.1-.13-.2-.25-.3-.37-.07-.08-.14-.15-.21-.22a2.917,2.917,0,0,1,.14-.31h1.39c.04.16.07.32.1.49S60.96,12.3,60.98,12.46Z" style="fill:#5d99af"/><path d="M59.64,11.07l-.43.43h.21a2.917,2.917,0,0,0-.14.31,4.782,4.782,0,0,0-.58-.52,1.462,1.462,0,0,0-.21-.16.55.55,0,0,0-.09-.07.219.219,0,0,0-.05-.03c-.02-.02-.03-.03-.05-.03v-.01L59.79,9.5H58a.5.5,0,0,1,0-1h.95a.284.284,0,0,1,.1.09,2.391,2.391,0,0,1,.23.22,1.92,1.92,0,0,1,.14.15,2.848,2.848,0,0,1,.23.26,2.2,2.2,0,0,1,.14.18,3.617,3.617,0,0,1,.22.32,2.3,2.3,0,0,1,.21.33C60.02,10.37,59.82,10.71,59.64,11.07Z" style="fill:#2b81a0"/><path d="M63,7.5H59a.5.5,0,0,1-.353-.854L61.793,3.5H59a.5.5,0,0,1,0-1h4a.5.5,0,0,1,.354.854L60.207,6.5H63a.5.5,0,0,1,0,1Z" style="fill:#fab06b"/><path d="M59,13.5H56a.5.5,0,0,1-.353-.854L57.793,10.5H56a.5.5,0,0,1,0-1h3a.5.5,0,0,1,.354.854L57.207,12.5H59a.5.5,0,0,1,0,1Z" style="fill:#febd73"/></g></svg>