<?xml version="1.0" ?><svg viewBox="0 0 64 64" xmlns="http://www.w3.org/2000/svg"><title/><g id="Icons"><path d="M45,41a19.075,19.075,0,0,1,6.352,8,22,22,0,0,1,.908,14H63V55A18,18,0,0,0,45,37Z" style="fill:#75eae2"/><path d="M55,48a1,1,0,0,1-.707-1.707l1-1A1,1,0,0,1,56.707,46.7l-1,1A1,1,0,0,1,55,48Z" style="fill:#4889a0"/><path d="M58,55a1,1,0,0,1-.707-.293l-1-1a1,1,0,0,1,1.414-1.414l1,1A1,1,0,0,1,58,55Z" style="fill:#4889a0"/><path d="M47,51a1.038,1.038,0,0,1-.71-.3A.984.984,0,0,1,46,50a1.013,1.013,0,0,1,.29-.71,1.738,1.738,0,0,1,.15-.13l.18-.091a1.337,1.337,0,0,1,.18-.049,1.035,1.035,0,0,1,.58.049,1.216,1.216,0,0,1,.33.221A1.029,1.029,0,0,1,48,50a.984.984,0,0,1-.29.7A1,1,0,0,1,47,51Z" style="fill:#727172"/><path d="M47,51a1.038,1.038,0,0,1-.71-.3A.984.984,0,0,1,46,50a1.013,1.013,0,0,1,.29-.71,1.738,1.738,0,0,1,.15-.13l.18-.091a1.337,1.337,0,0,1,.18-.049,1.035,1.035,0,0,1,.58.049,1.216,1.216,0,0,1,.33.221A1.029,1.029,0,0,1,48,50a.984.984,0,0,1-.29.7A1,1,0,0,1,47,51Z" style="fill:#4889a0"/><path d="M57,38a1,1,0,0,1-.92-.62A.838.838,0,0,1,56,37a1.008,1.008,0,0,1,.08-.391.994.994,0,0,1,.21-.319,1.027,1.027,0,0,1,1.42,0,.994.994,0,0,1,.21.319A1.008,1.008,0,0,1,58,37a.838.838,0,0,1-.08.38A1.015,1.015,0,0,1,57,38Z" style="fill:#4889a0"/><path d="M63,62a1.038,1.038,0,0,1-.71-.3A.984.984,0,0,1,62,61a1.029,1.029,0,0,1,.29-.71,1.047,1.047,0,0,1,1.42,0,.994.994,0,0,1,.21.319A1.051,1.051,0,0,1,64,61a.984.984,0,0,1-.29.7A1,1,0,0,1,63,62Z" style="fill:#4889a0"/><path d="M21.745,25.745l-4.42,3.56a8.4,8.4,0,0,1-1.94,8.19.6.6,0,0,0-.08.08,5.023,5.023,0,0,1-1.24.9,4.338,4.338,0,0,1-.72.29h-.01a4.38,4.38,0,0,1-.97-.42,5.229,5.229,0,0,1-2.25-2.39l-.75-1.59c-.58-1.24-1.16-2.48-1.74-3.71-1.26-2.69-4.79-16.51,3.2-24.64a17.58,17.58,0,0,1,10.92-4.94Z" style="fill:#484749"/><path d="M21.745,25.745v23.89c-5.24-1.36-11.07-.77-15.21,1.85,2.71-5.52,3.12-9.95,2.83-13.14a5.1,5.1,0,0,0,.9.39c.21.07.42.12.63.17a5.226,5.226,0,0,0,.97.09,4.193,4.193,0,0,0,.5-.03,4.646,4.646,0,0,0,.97-.2h.01a4.338,4.338,0,0,0,.72-.29,5.023,5.023,0,0,0,1.24-.9.6.6,0,0,1,.08-.08,8.4,8.4,0,0,0,1.94-8.19Z" style="fill:#ffd5c0"/><path d="M41.755,33.025h-1v2h-3.01a2.01,2.01,0,0,0-1.99,2.18,2.076,2.076,0,0,0,2.1,1.82h1.06a1.833,1.833,0,0,1,1.84,1.83,2.121,2.121,0,0,1-.64,1.53,2.161,2.161,0,0,1-1.54.64h-5.72a5.282,5.282,0,0,1-3.24-1.34l-1.24-1.24c-.12.15-.24.3-.35.44a10.159,10.159,0,0,0-1.67,3.18c-.07.23-.12.43-.13.49a11.641,11.641,0,0,0,.77,7.27,19.312,19.312,0,0,0-5.25-2.19V25.745l2.01-1.62a16.325,16.325,0,0,0,3.39-.32c.91-.19,6.03-1.29,8.38-5.47a10.66,10.66,0,0,0,1-7.18,7.446,7.446,0,0,0-.27-.92,34.755,34.755,0,0,1,4.5,14.79c.94,1.74,1.89,3.47,2.83,5.2A2,2,0,0,1,41.755,33.025Z" style="fill:#f9cebb"/><path d="M35.525,18.335c-2.35,4.18-7.47,5.28-8.38,5.47a16.325,16.325,0,0,1-3.39.32l-2.01,1.62V1.075c.05,0,.1-.01.15-.01a20.063,20.063,0,0,1,3.68.66.292.292,0,0,0,.09.02c4.68,1.29,9.13,4.23,10.59,8.49a7.446,7.446,0,0,1,.27.92A10.66,10.66,0,0,1,35.525,18.335Z" style="fill:#414043"/><path d="M21.9,1.065c-.05,0-.1.01-.15.01v-.02C21.8,1.055,21.845,1.065,21.9,1.065Z" style="fill:#484749"/><path d="M35.525,18.335c-2.35,4.18-7.47,5.28-8.38,5.47a16.325,16.325,0,0,1-3.39.32l-6.43,5.18a8.4,8.4,0,0,1-1.94,8.19.6.6,0,0,0-.08.08,4.913,4.913,0,0,1-5.94.77,4.623,4.623,0,0,1-.55-.35,4.823,4.823,0,0,0,2.25-.52,5.023,5.023,0,0,0,1.24-.9.6.6,0,0,1,.08-.08,8.4,8.4,0,0,0,1.94-8.19l6.43-5.18a16.325,16.325,0,0,0,3.39-.32c.91-.19,6.03-1.29,8.38-5.47a10.66,10.66,0,0,0,1-7.18,7.446,7.446,0,0,0-.27-.92c-1.18-3.44-4.31-6.02-7.94-7.57a2.437,2.437,0,0,1,.26.06.292.292,0,0,0,.09.02c4.68,1.29,9.13,4.23,10.59,8.49a7.446,7.446,0,0,1,.27.92A10.66,10.66,0,0,1,35.525,18.335Z" style="fill:#3d3d3d"/><path d="M10.825,6.015c-7.99,8.13-4.46,21.95-3.2,24.64.58,1.23,1.16,2.47,1.74,3.71l.75,1.59a5.229,5.229,0,0,0,2.25,2.39,4.38,4.38,0,0,0,.97.42,4.646,4.646,0,0,1-.97.2,4.193,4.193,0,0,1-.5.03,5.226,5.226,0,0,1-.97-.09c-.21-.05-.42-.1-.63-.17a5.1,5.1,0,0,1-.9-.39,5.229,5.229,0,0,1-2.25-2.39q-1.245-2.655-2.49-5.3c-1.26-2.69-4.79-16.51,3.2-24.64A17.935,17.935,0,0,1,20.365,1c.02-.01.03-.01.04,0h.3c.34.01.69.03,1.04.05v.02A17.58,17.58,0,0,0,10.825,6.015Z" style="fill:#565556"/><path d="M21.9,1.065c-.05,0-.1.01-.15.01v-.02C21.8,1.055,21.845,1.065,21.9,1.065Z" style="fill:#565556"/><path d="M23.755,24.005v7h-1a2.772,2.772,0,0,1-1-.18,2.968,2.968,0,0,1-2-2.82v-3a1,1,0,0,1,1-1Z" style="fill:#ffe0d2"/><path d="M23.755,24.005v7a2.772,2.772,0,0,1-1-.18,2.968,2.968,0,0,1-2-2.82v-3a1,1,0,0,1,1-1Z" style="fill:#ffd5c0"/><path d="M23.755,30.005a1.753,1.753,0,0,1-.638-.113,1.986,1.986,0,0,1-1.362-1.887v-3h2Z" style="fill:#f9c9b4"/><path d="M21.745,49.635v9.37H6.685v4H.755a13.6,13.6,0,0,1,2.64-8.72,12.193,12.193,0,0,1,3.14-2.8C10.675,48.865,16.505,48.275,21.745,49.635Z" style="fill:#febd73"/><path d="M24.685,63.005v-4h-2.94v-9.37A19.312,19.312,0,0,1,27,51.825a16.018,16.018,0,0,1,2.95,2.28,17.362,17.362,0,0,1,4.62,8.9Z" style="fill:#fab06b"/><rect height="4" style="fill:#fab06b" width="15.06" x="6.685" y="59.005"/><rect height="4" style="fill:#fc8e52" width="2.94" x="21.745" y="59.005"/><path d="M35.757,28.493a.5.5,0,0,1-.354-.853l2.94-2.94-5.515.788a.5.5,0,0,1-.142-.99l7-1a.5.5,0,0,1,.424.849l-4,4A.5.5,0,0,1,35.757,28.493Z" style="fill:#383838"/><path d="M29.555,41.625l-1.18-1.18c-.12.15-.24.3-.35.44l-3.94-6.68a.513.513,0,0,1,.17-.69.505.505,0,0,1,.69.18l4.55,7.72A.42.42,0,0,1,29.555,41.625Z" style="fill:#f2c8b6"/></g></svg>