<svg xmlns="http://www.w3.org/2000/svg" viewBox="0 0 675.557 569.136">
  <defs>
    <style>
      .cls-1 {
        fill: #fff;
      }

      .cls-2 {
        fill: #090a0b;
      }

      .cls-3 {
        fill: #6ecc97;
      }

      .cls-4 {
        fill: #a7e1d2;
      }

      .cls-5 {
        fill: #fbc3cc;
      }

      .cls-6 {
        fill: #1b1c1d;
      }
    </style>
  </defs>
  <g id="Group_1" data-name="Group 1" transform="translate(-44.424 541.824)">
    <path id="path5508" class="cls-1" d="M179.938-69.8c-32.953,10.031-35.4,19.379-73.578-8.937S26.633-151.47,52.423-231.7,77.491-334.026,99.969-368.124s56.558-54.152,71.594-29.655,21.48,14.189,45.627,93,42.668,97.382,39.244,143.253-76.5,91.718-76.5,91.718"/>
    <path id="path5510" class="cls-2" d="M166.918,7.614c-6.159-99.58-12.04-199.338-14.672-299.082-.747-28.272-.883-56.559.2-84.822.115-3-4.552-3-4.667,0-1.92,49.924.063,99.862,2.2,149.745q3.2,74.78,7.319,149.518,2.33,42.33,4.951,84.642c.185,2.982,4.853,3,4.667,0"/>
    <path id="path5512" class="cls-2" d="M235.994-154.2l-75.7,64.943h3.3Q119.052-131.911,70.882-170.5c-2.322-1.86-5.645,1.42-3.3,3.3q48.131,38.56,92.713,81.248a2.39,2.39,0,0,0,3.3,0l75.7-64.942c2.283-1.959-1.031-5.245-3.3-3.3"/>
    <path id="path5514" class="cls-2" d="M207.889-240.383a739.027,739.027,0,0,0-56.547,50.053h3.3l-61.4-52.141c-2.277-1.935-5.593,1.351-3.3,3.3q30.7,26.07,61.4,52.143a2.388,2.388,0,0,0,3.3,0,738.758,738.758,0,0,1,56.548-50.053c2.347-1.873-.973-5.156-3.3-3.3"/>
    <path id="path5516" class="cls-2" d="M184.886-322.6l-20.164,22.171-9.641,10.6c-2.733,3.005-4.421,6.753-9.652,2.375-1.4-1.177-2.9-4.1-4-5.579a210.815,210.815,0,0,0-35.026-36.8c-2.3-1.9-5.617,1.383-3.3,3.3a211.643,211.643,0,0,1,23.1,22.141q5.894,6.608,11.192,13.715c2.36,3.173,4.419,7.36,7.761,9.651,7.343,5.036,13.451-5.757,17.6-10.323l25.43-27.951c2.016-2.217-1.273-5.527-3.3-3.3"/>
    <path id="path5518" class="cls-1" d="M663.8-40.592c-21.324,3.8-23.549,9.457-45.273-11.068s-44.356-51.356-22.269-99.529,23.281-62.016,39.86-81.629,39.35-29.593,46.91-13.182,12.353,10.463,21.553,61.472,19.377,63.985,13.819,92.371S663.8-40.6,663.8-40.6"/>
    <path id="path5520" class="cls-2" d="M650.772,6.6q3.434-60.02,7.783-119.988c2.916-40.12,5.456-80.4,11.731-120.168.464-2.937-4.032-4.2-4.5-1.24-6.2,39.317-8.809,79.106-11.705,118.772Q649.606-54.747,646.1,6.6c-.172,3,4.495,2.991,4.667,0"/>
    <path id="path5522" class="cls-2" d="M704.82-89.966q-26.052,17.452-52.107,34.9l2.827.366q-24.65-29.946-51.827-57.644c-2.107-2.147-5.407,1.153-3.3,3.3Q627.579-81.357,652.241-51.4a2.338,2.338,0,0,0,2.827.366l52.108-34.9c2.483-1.664.149-5.707-2.356-4.031"/>
    <path id="path5524" class="cls-2" d="M693.7-145.874a474.13,474.13,0,0,0-39.039,27.033l2.828.367L623.044-155.61c-2.047-2.205-5.341,1.1-3.3,3.3l34.445,37.133a2.343,2.343,0,0,0,2.828.365,473.754,473.754,0,0,1,39.039-27.034c2.547-1.58.2-5.62-2.356-4.029"/>
    <path id="path5526" class="cls-2" d="M685-198.556l-15.688,13.591c-1.687,1.461-3.931,4.02-5.883,5.1q-1.906,3.294-4.275.22-1.052-1.988-2.171-3.937a135.594,135.594,0,0,0-19.207-25.584c-2.068-2.187-5.364,1.119-3.3,3.3a131.136,131.136,0,0,1,14.967,18.881c2.447,3.785,4.773,11.371,9.043,13.456,4.095,2,7.495-2.389,10.2-4.736q9.8-8.494,19.609-16.987c2.273-1.971-1.04-5.26-3.3-3.3"/>
    <path id="path5528" class="cls-3" d="M172.4-264.538s-60.843-2.829-66.874-3.888-24.884-7.776-7-23.328S306.147-477.607,306.147-477.607s77.762-89.425,125.2-56.765,89.426,69.208,89.426,69.208,9.331,14.775,13.219-3.111-1.555-31.105,13.22-31.883,54.433-1.555,54.433-1.555,17.108-2.333,15.552,13.219S612.529-380.4,612.529-380.4s-1.555,10.109,8.553,21.773,50.547,70.765,50.547,70.765,11.664,17.107-6.221,18.663-54.433-2.333-56.766,12.441S564.317-73.244,564.317-73.244L541.767,4.519s0,11.664-25.663,14.774-60.655,7-62.986,7-43.547-.778-48.991-.778-80.094-9.332-104.2-8.553-61.432,0-61.432,0-13.22,3.888-20.217-29.551S187.17-215.548,187.17-215.548s-7-38.881-14.775-48.991"/>
    <path id="path5530" class="cls-4" d="M402.572-352.41,408.4-173.557,323.254-74.8s-18.663,17.108-25.661-16.329-19.829-23.718-19.829-23.718-22.551,25.661-38.492,24.884-33.827-1.167-40.825-39.271,1.555-45.491-13.22-45.491-51.711,12.831-63.764-41.6c0,0-14.387-38.1,5.443-31.881,0,0,52.1-9.332,66.1-11.276s103.812-27.605,137.249-57.932,72.32-34.995,72.32-34.995"/>
    <path id="path5532" class="cls-1" d="M407.238-175.5s-29.161,49.768-26.828,80.872c0,0-2.333,3.888,15.941,8.165s64.93,14.774,64.93,14.774l4.277-37.325L478-71.689s6.611,1.167,17.887-7.386,36.937-34.216,36.937-34.216,3.888-2.721-8.165-16.329-40.048-44.713-45.492-44.324-71.929-1.556-71.929-1.556"/>
    <path id="path5534" class="cls-5" d="M397.518-353.187s-2.333-65.32,1.167-77.373,3.888-21,13.608-17.108,23.717,22.552,23.717,22.552l30.716,1.944s5.389,2.744-5.444,7.776-15.941,6.221-15.552,10.5,1.944,12.443,1.944,12.443l-1.555,1.165s1.944,28.384-8.943,36.937l5.443,9.72-16.329.779-28.772-9.332"/>
    <path id="path5536" class="cls-5" d="M342.7-306.918s29.939,22.94,34.216,39.659l-32.272,27.216L392.463-206.6s13.22,18.273,10.5,24.1-12.052,21.773-31.881,14-10.109-22.551-10.109-22.551l-43.936-24.107s-31.105-21.773-11.665-50.156,37.327-41.6,37.327-41.6"/>
    <path id="path5538" class="cls-5" d="M394.407-86.853l62.6,14.387L434.454,25.125l-40.436-.778s-1.165-97.2.389-111.2"/>
    <path id="path5540" class="cls-5" d="M491.221-75.966l38.492-30.714S554.985-71.3,544.1-44.472s-24.1,60.655-24.1,60.655L471,25.125,501.716-45.25s7.388-16.72-10.5-30.717"/>
    <path id="path5542" class="cls-4" d="M391.3-135.453c1.556-1.556,16.719-19.829,7.388-22.94l-7.388,22.94"/>
    <path id="path5544" class="cls-4" d="M404.516-93.073c-1.352-.368-9.72-18.274-8.555-23.717s5.444-6.611,8.165-.39,1.944,3.888,1.944,3.888,4.013-11.049,5.832-10.5,7.776,4.278,6.221,10.109-9.332,21.773-13.608,20.607"/>
    <path id="path5546" class="cls-4" d="M424.346-138.564s-12.831-18.663-10.887-23.329,4.665-5.443,7.776,0l3.111,5.444s2.335-7.912,5.443-8.165,5.444.777,3.888,7-6.22,14.775-9.331,19.052"/>
    <path id="path5548" class="cls-4" d="M437.954-86.464s-7-8.943-6.609-16.719,4.665-8.553,6.609-5.443,2.721,4.276,2.721,4.276,1.289-7.765,3.111-7.387,6.609,1.165,6.221,5.443-6.221,17.885-12.053,19.829"/>
    <path id="path5550" class="cls-4" d="M453.895-122.623s-10.5-11.665-10.109-18.664,3.111-10.885,5.832-7a45.106,45.106,0,0,1,4.665,9.72s-.117-6.453,3.5-7.388,4.665-3.888,5.055,1.556-1.167,11.664-8.943,21.773"/>
    <path id="path5552" class="cls-4" d="M462.838-159.56l-11.664-13.22H464s1.944,10.109-1.167,13.22"/>
    <path id="path5554" class="cls-4" d="M471-93.85s3.109-8.943,6.609-8.166,6.221,5.443,6.609,10.5-4.665,17.5-4.665,18.274S471-93.85,471-93.85"/>
    <path id="path5556" class="cls-4" d="M497.053-104.349s-11.665-9.72-12.443-14.774,1.167-9.72,5.832-5.832,3.5-.389,4.667-1.555,7.776-1.167,6.609,7.776a37.748,37.748,0,0,1-4.665,14.385"/>
    <path id="path5558" class="cls-4" d="M525.825-106.293s-11.665-13.219-10.5-16.719,4.277-3.111,6.221-.778a13.059,13.059,0,0,1,2.333,3.5,10.2,10.2,0,0,1,2.332-3.111c1.167-.777,4.277,1.167,5.444,3.111s2.332,6.61,1.167,7-7,7-7,7"/>
    <path id="path5560" class="cls-4" d="M506.773-135.065s-15.476-15.869-14-18.273,4.665-3.5,7-1.556,8.553,7.776,8.553,7.776l1.167,2.333-2.721,9.72"/>
    <path id="path5562" class="cls-1" d="M399.462-352.8,339.2-304.585s27.217,6.22,34.605,38.1l34.6,92.925,72.318.389S474.5-275.035,463.615-300.309,442.231-345.8,442.231-345.8l-15.941,1.944s-17.89-12.831-26.828-8.944"/>
    <path id="path5564" class="cls-2" d="M399.764-354.367a92.882,92.882,0,0,1-2.023-16.563c-.3-6.4-.228-12.813.007-19.213.456-12.444,1.587-24.847,2.629-37.252.443-5.271.6-10.949,3.455-15.592a8.517,8.517,0,0,1,5.715-4.153c3.035-.552,6.019,1.009,8.317,2.851a52.858,52.858,0,0,1,7.187,7.613l8.085,9.652a11.084,11.084,0,0,0,3.825,3.335c1.887.825,3.909.429,5.885.265a74.124,74.124,0,0,1,12.092-.011q3.052.246,6.072.753c.972.165,1.944.341,2.907.552.489.108,1.28.3,1.291.948s-.736,1.293-1.156,1.673a23.641,23.641,0,0,1-2.227,1.688,54.027,54.027,0,0,1-4.607,2.913,53.417,53.417,0,0,1-5.1,2.532,32.845,32.845,0,0,0-4.644,2,4.833,4.833,0,0,0-2.412,4.3,35.218,35.218,0,0,0,1.059,5.989q.6,2.988,1.193,5.977.286-.706.575-1.413a26.929,26.929,0,0,1-22.711,4.833,1.252,1.252,0,0,0-1.5.883,1.252,1.252,0,0,0,.84,1.53,29.308,29.308,0,0,0,24.64-5.085,1.33,1.33,0,0,0,.575-1.413l-1.3-6.521-.6-2.989a5.888,5.888,0,0,1-.189-2.591c.372-1.407,2.189-1.908,3.377-2.365a56.977,56.977,0,0,0,5.283-2.332,54.276,54.276,0,0,0,4.944-2.832,31.7,31.7,0,0,0,4.741-3.475c1.272-1.215,2.231-3,1.369-4.724-.953-1.909-3.293-2.067-5.144-2.393a76.263,76.263,0,0,0-12.373-1.171q-3.227-.037-6.451.2c-.964.073-1.923.191-2.887.261a5.013,5.013,0,0,1-2.657-.32c-1.551-.769-2.644-2.421-3.724-3.711q-2.064-2.466-4.131-4.931c-2.529-3.019-4.957-6.176-7.72-8.988a20.59,20.59,0,0,0-8.3-5.6,10.281,10.281,0,0,0-8.868,1.3c-4.828,3.4-6.248,9.929-6.792,15.453-.559,5.671-.967,11.364-1.436,17.043-.545,6.623-1.04,13.251-1.379,19.887-.34,6.679-.533,13.371-.4,20.059a122.605,122.605,0,0,0,1.509,18.031q.322,1.906.755,3.791c.361,1.568,2.775.9,2.413-.665"/>
    <path id="path5566" class="cls-2" d="M426.843-421.543l.123.033-.3-.127.123.069-.253-.2.113.112-.2-.253.093.159-.127-.3.061.223-.045-.332v.253l.044-.333-.055.2.127-.3-.081.139.2-.253-.1.1.253-.2-.125.072.3-.127-.133.036.333-.045h-.136l.333.045-.151-.04.3.127-.156-.092.253.2-.148-.148.2.253-.121-.2.127.3-.063-.224.045.333v-.181l-.045.333.043-.149-.127.3.071-.117-.2.253.049-.052-1.967-1.517a2.017,2.017,0,0,0-.209.411,1.968,1.968,0,0,0-.145.449,2.893,2.893,0,0,0,.028,1.233,2.759,2.759,0,0,0,.569,1.079l.2.215.341.261a1.3,1.3,0,0,0,1.055.164,1.984,1.984,0,0,0,.9-.516,2.246,2.246,0,0,0,.529-.9,2.209,2.209,0,0,0,.112-.768,2.366,2.366,0,0,0-.129-.769,2.241,2.241,0,0,0-.583-.931,1.878,1.878,0,0,0-.447-.315,2.381,2.381,0,0,0-.392-.156,3.094,3.094,0,0,0-.453-.067l.632.171a1.863,1.863,0,0,0-.729-.2,1.362,1.362,0,0,0-.469.051,1.772,1.772,0,0,0-.776.444l-.143.173-.141.191a1.752,1.752,0,0,0-.171.417,1.62,1.62,0,0,0,.156,1.181,1.683,1.683,0,0,0,1.447.821,1.731,1.731,0,0,0,.848-.217,1.541,1.541,0,0,0,.612-.617.929.929,0,0,0,.149-.465.947.947,0,0,0-.023-.5,1.274,1.274,0,0,0-.575-.748,1.265,1.265,0,0,0-.964-.127,1.229,1.229,0,0,0-.748.576l-.047.075.2-.253-.061.06.252-.2-.075.043.3-.127-.128.035.333-.045h-.135l.333.044-.108-.028.3.127-.1-.055.253.2-.061-.059.2.252-.044-.075.125.3-.025-.1.045.333v-.076l-.045.333.027-.1-.125.3.065-.109-.2.253.1-.091-.255.2.091-.052-.3.127.121-.035-.332.044h.1l-.332-.045.073.021-.3-.125a1.624,1.624,0,0,0,.676.184l-.333-.044.193.049-.3-.127.164.1-.253-.2.147.148-.2-.253.128.217-.127-.3.089.329-.045-.332v.345l.045-.333-.076.289.125-.3-.124.215.2-.253-.133.133.253-.2-.167.1.3-.125-.137.041.965.125-.136-.091.253.2-.228-.232.2.253-.176-.3.127.3a1.684,1.684,0,0,1-.1-.369l.045.333a1.5,1.5,0,0,1,0-.408l-.045.332.084-.312-.127.3.148-.26a.944.944,0,0,0,.148-.465.947.947,0,0,0-.023-.5,1.3,1.3,0,0,0-.448-.651,1.19,1.19,0,0,0-.759-.268,1.3,1.3,0,0,0-.885.367,1.73,1.73,0,0,0-.483.871,1.9,1.9,0,0,0-.045.513,2.16,2.16,0,0,0,.091.512,2.315,2.315,0,0,0,.523.869,1.991,1.991,0,0,0,.857.513l.253.04.257.025a1.847,1.847,0,0,0,.511-.085,1.877,1.877,0,0,0,.983-.761,2.038,2.038,0,0,0,.2-.441l.047-.179a2.293,2.293,0,0,0-.016-1,2.227,2.227,0,0,0-.188-.476,1.947,1.947,0,0,0-.3-.4,1.675,1.675,0,0,0-.884-.505.948.948,0,0,0-.5-.023.944.944,0,0,0-.465.148,1.27,1.27,0,0,0-.575.749,1.268,1.268,0,0,0,.125.964,1.216,1.216,0,0,0,.748.575"/>
    <path id="path5568" class="cls-2" d="M444.788-392.246a52.452,52.452,0,0,1,.212,15.41,43.805,43.805,0,0,1-4.552,13.777,63.811,63.811,0,0,1-4.887,7.8,1.26,1.26,0,0,0,.449,1.712,1.278,1.278,0,0,0,1.712-.449,56.772,56.772,0,0,0,7.745-14.353,45.623,45.623,0,0,0,2.5-14.951,64.284,64.284,0,0,0-.764-9.612,1.26,1.26,0,0,0-1.539-.875,1.285,1.285,0,0,0-.875,1.54"/>
    <path id="path5570" class="cls-2" d="M392.376-424.94a4.369,4.369,0,0,0,3.777,2.76,5.6,5.6,0,0,0,4.413-1.6,12.357,12.357,0,0,0,2.748-4.453,33.138,33.138,0,0,0,1.74-5.5,35.2,35.2,0,0,0,.6-11.827,35.5,35.5,0,0,0-1.159-5.751q-.406-1.386-.935-2.733a5.289,5.289,0,0,0-1.323-2.251c-1.52-1.281-3.345-.356-4.292,1.1-.973,1.5-1.069,3.473-1.131,5.208a24.683,24.683,0,0,0,1.919,10.344,21.479,21.479,0,0,0,6.409,8.86,5.329,5.329,0,0,0,4.955,1.017,6.584,6.584,0,0,0,3.379-3.107,19.181,19.181,0,0,0,1.849-5.593,44.106,44.106,0,0,0,.879-6.931,43.444,43.444,0,0,0-1.661-14c-.272-.94-1.835-1.335-2.288-.3a20.009,20.009,0,0,0,1.683,19.031c.929,1.367,2.159,3.165,3.9,3.481a3.457,3.457,0,0,0,3.633-2.063,13.374,13.374,0,0,0,1.067-4.929q.306-3.106.42-6.231a101.638,101.638,0,0,0-.5-14.371,1.287,1.287,0,0,0-1.252-1.251,1.259,1.259,0,0,0-1.251,1.251,93.726,93.726,0,0,1-.1,22.357c-.116.847-.384,2.211-1.123,2.691-.283.183-.6.091-.949-.192a8.213,8.213,0,0,1-1.38-1.58,17.611,17.611,0,0,1-3.14-7.764,16.955,16.955,0,0,1,1.157-9.168l-2.287-.3a40.953,40.953,0,0,1,.5,20.853,13.865,13.865,0,0,1-1.412,3.909,3.639,3.639,0,0,1-2.291,1.944c-1.359.221-2.563-.884-3.435-1.772a20.6,20.6,0,0,1-2.763-3.517,22.861,22.861,0,0,1-3.145-8.327,21.619,21.619,0,0,1-.268-4.343c.044-1.269.039-2.853.788-3.944a1.738,1.738,0,0,1,.388-.432c.2-.155.133-.039.067-.069.427.2.659,1.235.8,1.613a32.827,32.827,0,0,1,1.364,4.739,33.054,33.054,0,0,1,.508,9.969,29.446,29.446,0,0,1-2.835,10.28c-.616,1.216-1.488,2.611-2.861,3.051-.86.275-2.364.167-2.755-.827a1.288,1.288,0,0,0-1.539-.873,1.26,1.26,0,0,0-.875,1.539"/>
    <path id="path5572" class="cls-2" d="M415.666-406.732c-.784-2.927-1.841-6.208-4.811-7.587a5.37,5.37,0,0,0-4.475-.181,7.475,7.475,0,0,0-3.095,3.391c-1.668,2.851-3.163,6.145-2.952,9.528a8.082,8.082,0,0,0,3.949,6.635c2.4,1.427,5.536,1.576,7.616-.487a1.252,1.252,0,0,0-.022-1.747,1.252,1.252,0,0,0-1.747-.024,3.484,3.484,0,0,1-4.141.337,5.518,5.518,0,0,1-3.107-4.224c-.36-2.552.631-5.136,1.789-7.359.912-1.748,2.04-4.52,4.469-3.853,2.7.741,3.479,3.871,4.112,6.236a1.252,1.252,0,0,0,1.53.839,1.252,1.252,0,0,0,.884-1.5"/>
    <path id="path5574" class="cls-2" d="M406.475-406.424l2.84,6.352a1.254,1.254,0,0,0,1.712.449,1.288,1.288,0,0,0,.449-1.712q-1.42-3.176-2.839-6.353a1.257,1.257,0,0,0-1.713-.449,1.292,1.292,0,0,0-.449,1.713"/>
    <path id="path5576" class="cls-2" d="M397.672-354.92c-12.373,10.336-24.812,20.593-36.989,31.16-12.415,10.771-24.627,21.828-36.016,33.689a205.95,205.95,0,0,0-15.8,18.047c-4.947,6.539-9.072,13.907-10.444,22.08a32.734,32.734,0,0,0,.089,11.983,27.944,27.944,0,0,0,4.741,10.625c4.559,6.361,11,11.225,17.288,15.764a164.88,164.88,0,0,0,43.576,22.432q2.876.974,5.787,1.837a1.252,1.252,0,0,0,1.491-.887,1.252,1.252,0,0,0-.826-1.525,162.878,162.878,0,0,1-43.536-20.4c-6.425-4.267-12.921-8.9-18.265-14.495a31.846,31.846,0,0,1-6.36-9.224,26.328,26.328,0,0,1-1.976-11.516c.331-8.047,3.737-15.529,8.209-22.1,4.42-6.492,9.8-12.357,15.161-18.079,10.967-11.707,22.8-22.585,34.855-33.157,12.012-10.535,24.308-20.736,36.581-30.963l4.207-3.508c1.236-1.035-.543-2.8-1.771-1.771"/>
    <path id="path5578" class="cls-2" d="M396.092-350.608c4.88-2.417,10.34-1.783,15.28.109,5.3,2.028,10.092,5.376,14.508,8.88,2.053,1.629,4.316,3.307,5.717,5.565,1.624,2.619,1.14,5.477.2,8.255a71.449,71.449,0,0,1-7.235,14.893c-5.869,9.368-13.535,17.485-21.8,24.767-8.825,7.768-18.436,14.557-27.979,21.4C364.835-259.6,354.9-252.377,345.948-244q-1.654,1.55-3.26,3.151a1.269,1.269,0,0,0-.347,1.044,1.269,1.269,0,0,0,.6.923c12.563,8.331,24.951,16.92,37.44,25.363q5.8,3.918,11.629,7.787c1.347.892,2.6-1.275,1.263-2.161-12.564-8.332-24.951-16.921-37.44-25.363q-5.8-3.92-11.629-7.787.126.982.253,1.964c8.933-8.9,19.048-16.468,29.261-23.824,9.9-7.127,19.935-14.107,29.2-22.064,8.7-7.479,16.784-15.84,23.056-25.493A78.1,78.1,0,0,0,433.7-325.7c1.1-2.941,2.089-6.2,1.115-9.316-.849-2.712-2.883-4.811-5-6.607a70.355,70.355,0,0,0-14.62-9.919c-5.071-2.445-10.812-4-16.421-2.676a18.51,18.51,0,0,0-3.939,1.455c-1.444.716-.177,2.876,1.263,2.161"/>
    <path id="path5580" class="cls-2" d="M391.435-206.484c1.943,5.257,5.149,9.972,7.555,15.017a29.731,29.731,0,0,1,2.665,7.647,8.649,8.649,0,0,1-1.2,6.427c-3.6,5.751-10.8,9.057-17.371,9.711a21.764,21.764,0,0,1-18.224-6.437,16.435,16.435,0,0,1-4.476-8.792c-.377-2.845.2-6.256,2.779-7.932,1.344-.876.091-3.044-1.264-2.161a9.794,9.794,0,0,0-4.113,8.331,16.853,16.853,0,0,0,2.948,9.335,23.4,23.4,0,0,0,18,10.231,27.951,27.951,0,0,0,21.277-7.74c2.179-2.211,3.988-4.916,4.268-8.069a18.466,18.466,0,0,0-1.507-8.056A81.322,81.322,0,0,0,398.1-198.6a67.3,67.3,0,0,1-4.253-8.548,1.287,1.287,0,0,0-1.54-.875,1.263,1.263,0,0,0-.875,1.54"/>
    <path id="path5582" class="cls-2" d="M455.615-71.121c-3.4,14.743-7.049,29.425-10.673,44.112q-1.4,5.678-2.791,11.36c-.667,2.731-1.395,5.442-2.091,8.166-1.349,5.281-2.5,10.613-3.716,15.925a160.556,160.556,0,0,1-4.329,16.533c-.527,1.527,1.891,2.183,2.413.666a143,143,0,0,0,3.825-14.352c1.264-5.431,2.44-10.883,3.768-16.3.6-2.44,1.3-4.853,1.891-7.293q1.356-5.582,2.732-11.155,2.718-11.031,5.437-22.063,3.046-12.448,5.947-24.933c.361-1.568-2.052-2.237-2.413-.665"/>
    <path id="path5584" class="cls-2" d="M478.252-153.561c-.788,2.884-1.721,5.725-2.724,8.541-1.009,2.837-2.149,5.636-3.043,8.512-1.816,5.857-3.679,11.7-5.276,17.624-.892,3.305-1.7,6.634-2.377,9.989-.319,1.573,2.093,2.247,2.415.666,1.2-5.916,2.8-11.74,4.537-17.519.883-2.932,1.8-5.855,2.707-8.78.917-2.945,2.005-5.82,3.055-8.721,1.149-3.179,2.229-6.384,3.121-9.647a1.253,1.253,0,0,0-.885-1.5,1.253,1.253,0,0,0-1.53.84"/>
    <path id="path5586" class="cls-2" d="M435.56-354a114.848,114.848,0,0,1,9.167,14.773q1.074,2.032,2.1,4.089a9.478,9.478,0,0,0,2.021,3.337,3.2,3.2,0,0,1,.872,1.424q.466,1.116.943,2.231.94,2.2,1.913,4.381c1.227,2.76,2.537,5.476,3.573,8.315,1.059,2.9,2.045,5.829,2.98,8.772q2.782,8.758,4.955,17.684,2.144,8.748,3.759,17.617.83,4.562,1.519,9.149.344,2.3.657,4.6a12.136,12.136,0,0,0,.289,2,4.356,4.356,0,0,0,.295.643c.064.119.4.779.263.353a13.686,13.686,0,0,1,.315,2.3q.168,1.248.329,2.5.31,2.386.6,4.775.58,4.824,1.083,9.655c.659,6.3,1.232,12.6,1.767,18.913,1.064,12.523,1.977,25.059,3.152,37.572q.216,2.32.447,4.633c.157,1.588,2.663,1.6,2.5,0-1.247-12.56-2.185-25.148-3.223-37.727-1.057-12.807-2.228-25.608-3.889-38.353a40.877,40.877,0,0,0-.633-4.729,5.492,5.492,0,0,0-.593-1.244c-.117-.215-.028.051-.012.1a4.3,4.3,0,0,1-.091-.691l-.16-1.2q-.63-4.656-1.4-9.3-1.49-9.006-3.532-17.911c-1.371-5.971-2.9-11.911-4.671-17.773a140.591,140.591,0,0,0-6.128-17.5c-1.3-2.873-2.595-5.749-3.836-8.648q-.454-1.056-.895-2.115a5.658,5.658,0,0,0-.98-1.855,5.433,5.433,0,0,1-.924-.928c-.389-.668-.688-1.411-1.032-2.1a134.728,134.728,0,0,0-8.845-15.493q-1.206-1.788-2.491-3.517a1.293,1.293,0,0,0-1.712-.449A1.26,1.26,0,0,0,435.56-354"/>
    <path id="path5588" class="cls-2" d="M393.031-87.554c-.537,6.683-.907,13.377-1.183,20.076q-.456,11.13-.591,22.272-.156,11.6-.039,23.2.11,11.212.481,22.42c.229,6.792.536,13.584.972,20.367q.074,1.144.153,2.286c.109,1.6,2.613,1.609,2.5,0-.459-6.66-.784-13.328-1.031-20q-.412-11.114-.544-22.233-.146-11.6-.027-23.2.118-11.23.521-22.453c.253-6.82.6-13.636,1.107-20.44q.086-1.15.179-2.3a1.261,1.261,0,0,0-1.252-1.251,1.275,1.275,0,0,0-1.251,1.251"/>
    <path id="path5590" class="cls-2" d="M374.13-268.921a13.952,13.952,0,0,0,.285,6.849,56.848,56.848,0,0,0,2.613,6.735c1.712,4.2,3.285,8.464,4.761,12.757,2.788,8.111,5.212,16.34,7.843,24.5,1.343,4.168,2.743,8.319,4.256,12.428,1.5,4.071,3.213,8.141,4.848,12.1,1.337,3.239,2.531,6.543,3.772,9.819,1.208,3.187,2.371,6.387,3.557,9.579l.045.141c.084.155-.011-.484.02-.575l.873-.875h0l.964.127c.109.072.457.665.391.343l-.113-.256c-.145-.324.1.241-.064-.152l-.248-.6a1.292,1.292,0,0,0-1.54-.875,1.261,1.261,0,0,0-.873,1.54,14.752,14.752,0,0,0,.7,1.644,1.263,1.263,0,0,0,1.6.54,1.263,1.263,0,0,0,.714-1.525,35.354,35.354,0,0,0-1.276-3.533q-2.408-6.474-4.9-12.923c-.668-1.737-1.364-3.453-2.093-5.168-1.949-4.58-3.719-9.237-5.364-13.937-3.083-8.795-5.7-17.744-8.563-26.611-1.469-4.541-3.009-9.061-4.689-13.528q-1.346-3.582-2.813-7.119a29.1,29.1,0,0,1-2.424-7.269,9.565,9.565,0,0,1,.139-3.489c.373-1.567-2.039-2.235-2.413-.665"/>
    <path id="path5592" class="cls-2" d="M424.683-342.182a66,66,0,0,0,16.885-1.987,1.252,1.252,0,0,0,.84-1.53,1.252,1.252,0,0,0-1.5-.883,63.265,63.265,0,0,1-16.22,1.9,1.252,1.252,0,0,0-1.181,1.25,1.252,1.252,0,0,0,1.181,1.25"/>
    <path id="path5594" class="cls-2" d="M403.878-356.676c-26.7,7.069-50.323,22.352-73.285,37.175-11.864,7.659-23.7,15.392-36.015,22.317a300.489,300.489,0,0,1-40.617,18.936c-27.261,10.352-55.752,17-84.426,22.035-14.213,2.5-28.491,4.617-42.777,6.653q-2.542.364-5.086.723a8.268,8.268,0,0,0-4.025,1.219c-2.388,1.8-2.253,5.2-1.871,7.841.9,6.229,2.418,12.464,3.912,18.575,2.775,11.344,6.283,23.089,12.892,32.859a37.437,37.437,0,0,0,10.52,10.687c5.613,3.616,12.209,4.772,18.793,4.747,6.937-.025,13.827-1.156,20.768-1.008,3.063.063,7.1-.091,8.857,2.923,1.632,2.8,1.681,6.561,2.056,9.705,1.533,12.889,2.591,25.952,5.836,38.559,2.908,11.3,7.967,22.988,18.065,29.623,10.516,6.906,23.425,6.018,34.3.468a70.428,70.428,0,0,0,16.483-12.149c2.519-2.416,4.884-5.008,7.592-7.221,2.315-1.889,5.308-3.941,8.459-3.569,5.7.675,8.088,7.93,9.344,12.585,1.68,6.231,2.072,12.716,3.645,18.971,1.375,5.469,3.835,11.609,9.341,14.064,5.469,2.436,11.547.281,16.017-3.193,5.344-4.155,9.233-9.858,13.433-15.085,2.556-3.181,5.169-6.318,7.792-9.444,16.455-19.619,33.147-39.029,49.259-58.933q7.306-9.03,14.475-18.169c.983-1.253-.777-3.037-1.771-1.769-17.247,22.012-35.221,43.429-53.3,64.757-5.987,7.061-12.015,14.1-17.831,21.3-4.021,4.984-7.721,10.4-12.616,14.589-4.5,3.855-11.476,6.611-16.64,2.292-4.664-3.9-5.892-10.9-6.884-16.562-1.064-6.064-1.684-12.252-3.995-18.014-1.813-4.521-4.929-9.426-10.269-9.89-6.241-.54-11.5,5.228-15.487,9.22-9.039,9.037-20.455,18.029-33.855,18.269a28.65,28.65,0,0,1-16.593-4.921A35.633,35.633,0,0,1,207.012-109.1c-5.608-11-7.487-23.692-9.019-35.8-.8-6.376-1.456-12.772-2.252-19.149-.377-3.008-.691-6.361-2.512-8.9s-4.715-3.081-7.628-3.321c-13.225-1.088-27.787,4.215-40.052-2.82-9.325-5.349-14.646-15.793-18.271-25.5a154.276,154.276,0,0,1-5.231-17.493c-1.451-5.965-2.946-12.051-3.827-18.129a8.16,8.16,0,0,1,.245-4.537c.763-1.584,2.877-1.528,4.38-1.74q5.216-.738,10.43-1.489,10.58-1.53,21.14-3.185c28.149-4.46,56.212-10.007,83.373-18.767a329.34,329.34,0,0,0,40.1-15.793,357.355,357.355,0,0,0,37.323-20.929c23.195-14.629,45.8-30.945,71.288-41.467a143.666,143.666,0,0,1,18.044-6.136,1.252,1.252,0,0,0,.84-1.53,1.252,1.252,0,0,0-1.5-.883"/>
    <path id="path5596" class="cls-2" d="M187.816-174.941a115.39,115.39,0,0,0,22.109-9.132,162.824,162.824,0,0,0,20.86-13.437,259.315,259.315,0,0,0,19.972-16.723c6.584-6.056,12.925-12.371,19.133-18.808,6.313-6.547,12.489-13.223,18.639-19.924l2.247-2.449c1.087-1.185-.679-2.96-1.771-1.769-6.088,6.643-12.188,13.273-18.409,19.792-6.137,6.431-12.392,12.753-18.869,18.843-6.315,5.935-12.843,11.652-19.692,16.965a170.914,170.914,0,0,1-20.464,13.751A116.4,116.4,0,0,1,189.92-178.2q-1.38.44-2.769.844a1.253,1.253,0,0,0-.839,1.53,1.253,1.253,0,0,0,1.5.885"/>
    <path id="path5598" class="cls-2" d="M279.123-115.649a220.565,220.565,0,0,0,35.787-29.13q4.79-4.788,9.309-9.836c1.072-1.2-.692-2.972-1.771-1.769a229.517,229.517,0,0,1-34.136,31.325q-5.112,3.786-10.452,7.249c-1.348.873-.1,3.042,1.263,2.161"/>
    <path id="path5600" class="cls-2" d="M529.261-103.632a108.889,108.889,0,0,1,11.731,22.558,60.438,60.438,0,0,1,3.049,12.182,61.777,61.777,0,0,1,.165,12.754A108.047,108.047,0,0,1,539.424-31.7,181.618,181.618,0,0,1,530.4-9.088c-3.548,7.583-7.379,15.028-11.079,22.537q-.7,1.428-1.4,2.86c-.7,1.441,1.456,2.714,2.161,1.264C523.816,9.9,527.731,2.32,531.405-5.379a206.193,206.193,0,0,0,9.571-23,114.525,114.525,0,0,0,5.464-24.684,73.2,73.2,0,0,0,.388-13.125,58.386,58.386,0,0,0-2.435-12.568,99.437,99.437,0,0,0-11.209-23.379q-.868-1.388-1.763-2.757c-.875-1.345-3.043-.091-2.16,1.264"/>
    <path id="path5602" class="cls-2" d="M491.173-74.937a111.534,111.534,0,0,1,7.14,10.675,61.9,61.9,0,0,1,2.949,5.782,11.545,11.545,0,0,1,.836,6.09,21.33,21.33,0,0,1-1.627,6.051c-.553,1.261-1.213,2.484-1.8,3.731-1.335,2.823-2.625,5.668-3.895,8.521-2.887,6.489-5.667,13.025-8.443,19.561-2.855,6.722-5.693,13.452-8.6,20.153-2.539,5.847-5.113,11.684-7.9,17.419q-.446.92-.9,1.837c-.716,1.437,1.441,2.706,2.16,1.263,2.8-5.62,5.357-11.361,7.871-17.114,2.949-6.747,5.816-13.531,8.692-20.309,2.851-6.723,5.7-13.445,8.653-20.124,1.3-2.939,2.617-5.869,3.977-8.78q.918-1.96,1.864-3.9a26.5,26.5,0,0,0,2-5.62,17.64,17.64,0,0,0,.367-6.62,20.773,20.773,0,0,0-2.38-6.127,86.979,86.979,0,0,0-6.891-11.121Q494.3-74.9,493.335-76.2a1.288,1.288,0,0,0-1.712-.449,1.26,1.26,0,0,0-.449,1.712"/>
    <path id="path5604" class="cls-2" d="M405.646-176.3a159.811,159.811,0,0,0-15.928,36.217,358.391,358.391,0,0,0-9.087,38.649q-.476,2.5-.943,5.009a9.158,9.158,0,0,0-.051,4.649c1.141,3.3,5.084,3.692,8.008,4.378l21.891,5.137,44.051,10.336c1.736.406,3.475.9,5.232,1.212,1.629.286,3.3-.09,4.069-1.7a14.3,14.3,0,0,0,.809-4.661q.292-2.823.587-5.649l2.332-22.46q.286-2.756.573-5.51a1.262,1.262,0,0,0-1.252-1.253,1.279,1.279,0,0,0-1.251,1.253q-1.132,10.884-2.261,21.771-.558,5.373-1.117,10.748-.142,1.378-.285,2.756a5.679,5.679,0,0,1-.352,1.873c-.2.416-.537.475-.98.443a16.937,16.937,0,0,1-2.467-.536Q436.01-78.622,414.8-83.6l-21.351-5.009-5.4-1.268a26.536,26.536,0,0,1-4.421-1.152,2.7,2.7,0,0,1-1.761-2.763,26.966,26.966,0,0,1,.725-4.54c2.365-12.56,4.892-25.112,8.444-37.4a164.742,164.742,0,0,1,14.333-35.137q1.186-2.108,2.445-4.172c.841-1.379-1.323-2.639-2.16-1.264"/>
    <path id="path5606" class="cls-2" d="M464.395-108.049l7.928,20.914q1.958,5.164,3.915,10.33c1.016,2.68,2.111,6.027,5.423,6.429a8.142,8.142,0,0,0,4.821-1.284c1.416-.779,2.795-1.636,4.172-2.481q4.184-2.578,8.227-5.379a181.653,181.653,0,0,0,15.349-11.9,176.081,176.081,0,0,0,14.021-13.55q1.632-1.764,3.215-3.571a13.4,13.4,0,0,0,2.6-3.879c1.267-3.29-.8-6.232-2.6-8.827a225.7,225.7,0,0,0-22.221-27.4,287.646,287.646,0,0,0-25.912-23.484q-1.874-1.532-3.764-3.048a1.289,1.289,0,0,0-1.769,0,1.261,1.261,0,0,0,0,1.771,329.911,329.911,0,0,1,26.043,22.835,212.075,212.075,0,0,1,21.492,25.029c1.819,2.477,3.679,4.96,5.329,7.555.759,1.191,1.548,2.6,1.251,4.069a8.023,8.023,0,0,1-2.071,3.436A168.828,168.828,0,0,1,516.776-97.05a177.491,177.491,0,0,1-29.988,22.317c-1.283.76-2.681,1.751-4.209,1.893a2.747,2.747,0,0,1-2.685-1.672,30.224,30.224,0,0,1-1.732-4.251L476.3-83.669q-3.818-10.069-7.635-20.14l-1.86-4.907a1.283,1.283,0,0,0-1.539-.873,1.261,1.261,0,0,0-.875,1.539"/>
    <path id="path5608" class="cls-2" d="M406.726-174.418q14.474,1.05,28.983,1.52t29.02.348q8.154-.066,16.3-.317c1.607-.049,1.613-2.553,0-2.5q-14.506.444-29.02.309T423-175.922q-8.142-.408-16.277-1a1.263,1.263,0,0,0-1.252,1.251,1.277,1.277,0,0,0,1.252,1.252"/>
    <path id="path5610" class="cls-2" d="M340.143-306.75l-2.325-.308c-1.385-.184-1.72,2.216-.332,2.459,15.117,2.633,23.531,17.011,30.785,29.039l7.424,12.312a1.253,1.253,0,0,0,1.685.4,1.253,1.253,0,0,0,.476-1.666c-4.352-7.217-8.54-14.572-13.179-21.612-4.153-6.3-9.008-12.276-15.412-16.409a30.246,30.246,0,0,0-11.115-4.48q-.166,1.23-.333,2.459l2.325.308A1.258,1.258,0,0,0,341.4-305.5a1.284,1.284,0,0,0-1.252-1.252"/>
    <path id="path5612" class="cls-6" d="M673.682-287.4c-12.587-21.988-27.057-40.576-42.377-60.256-5.311-6.821-10.8-13.875-16.175-21.044l-1.767-5.443q.1-7.582.164-15.157c.307-31.108.624-63.275,4.416-94.677.843-6.977-.329-12.105-3.485-15.24-3.135-3.116-8.213-4.252-15.1-3.375-11.2,1.425-22.6,1.312-33.616,1.2-2.277-.023-4.553-.047-6.832-.056h-.41c-21.2-.089-21.643.289-24.008,20.632-.361,3.109-.879,6.525-1.631,10.751a16.231,16.231,0,0,0-.013,4.029c.237,3,.184,4.481-1.329,5.179-2.319,1.069-4.075-.377-6.688-2.885a27.626,27.626,0,0,0-2.345-2.091c-10.093-7.689-19.975-15.977-29.531-23.995-18.4-15.432-37.42-31.389-58.951-43.915-14.079-8.192-28.4-10.131-43.8-5.929-12.173,3.323-24.621,10.325-39.172,22.037-24,19.317-49.4,40.972-79.933,68.152-42.988,38.264-65.737,59.173-97.224,88.112-11.271,10.357-24.044,22.1-39.268,36.033-2.8,2.559-6.1,5.424-9.6,8.46-10.511,9.123-23.592,20.476-32.1,31.568a10.688,10.688,0,0,0-1.558,10.265,10.693,10.693,0,0,0,7.869,6.784A165.163,165.163,0,0,0,125.9-264.88c3.982.177,9.557.153,15.463.128,10.9-.049,23.26-.1,30.029,1.057.784.135,2.345,1.288,4.471,7.128q1.286-.126,2.577-.208c-2.629-7.443-4.835-9.08-6.625-9.387-6.985-1.2-19.459-1.144-30.464-1.1-5.871.027-11.418.051-15.34-.125a162.735,162.735,0,0,1-26.28-3.328,8.211,8.211,0,0,1-6.038-5.2,8.2,8.2,0,0,1,1.2-7.873c8.353-10.891,21.328-22.152,31.754-31.2,3.509-3.045,6.824-5.924,9.645-8.5,15.225-13.937,28-25.679,39.272-36.037,31.477-28.931,54.22-49.833,97.193-88.085,30.5-27.151,55.872-48.781,79.838-68.071,14.275-11.489,26.432-18.344,38.263-21.573,14.708-4.016,28.408-2.159,41.877,5.679,21.345,12.417,40.284,28.3,58.6,43.669,9.577,8.035,19.481,16.343,29.621,24.067a26.162,26.162,0,0,1,2.131,1.9c2.419,2.324,5.431,5.213,9.468,3.353,3.264-1.5,2.993-4.912,2.777-7.649a14.114,14.114,0,0,1-.017-3.393c.76-4.276,1.284-7.74,1.653-10.913,1.1-9.467,1.652-14.217,4.125-16.337,2.491-2.136,7.469-2.112,17.384-2.068h.409q3.408.016,6.817.056c11.1.112,22.588.228,33.959-1.219,6.075-.773,10.457.124,13.017,2.667,2.58,2.564,3.511,6.993,2.765,13.165-3.809,31.54-4.128,63.777-4.435,94.953q-.076,7.674-.167,15.355v.207l2.023,6.231.124.167c5.428,7.245,10.968,14.363,16.328,21.247C644.584-326.505,659-307.984,671.5-286.15c2.96,5.171,3.791,9.079,2.471,11.62-1.373,2.64-5.319,4.279-11.725,4.868-12.491,1.151-25.9,2.232-39.3,2.348-9.385.08-13.913,3.623-15.144,11.843-4.177,27.916-11.925,55.539-19.417,82.25-5.224,18.623-10.625,37.879-14.784,57.1-4.915,22.731-11.953,45.333-18.76,67.193-5.371,17.285-10.94,35.157-15.431,53.014-1.819,7.226-6.291,10.764-14.951,11.828-8.22,1.009-16.516,2.336-24.536,3.617-21.941,3.508-42.664,6.82-63.432,4.543a10.725,10.725,0,0,0-1.809-.043c-24.347,1.571-47.985-1.1-70.846-3.686-12.432-1.407-25.288-2.86-37.965-3.584-16.2-.924-32.624-.912-48.508-.921-9.651,0-19.64,0-29.456-.207-18.273-.388-19.9-1.583-24.8-18.261-10.771-36.6-15.484-70.246-20.473-105.869-1.964-14.026-4-28.528-6.447-43.488-1.012-6.172-2.12-14.3-3.379-23.691q-1.242.168-2.475.379c1.259,9.388,2.368,17.52,3.383,23.716,2.447,14.933,4.476,29.42,6.439,43.432,5,35.716,9.728,69.451,20.551,106.229,5.229,17.77,7.768,19.644,27.153,20.056,9.841.208,19.841.207,29.508.207,15.859,0,32.237,0,48.365.917,12.608.72,25.428,2.169,37.827,3.572,22.971,2.6,46.724,5.284,71.289,3.7a8.212,8.212,0,0,1,1.375.033h0a131.472,131.472,0,0,0,14.348.747c16.559,0,33.371-2.687,49.752-5.305,8-1.279,16.271-2.6,24.447-3.606,9.592-1.179,15.016-5.532,17.072-13.7,4.477-17.79,10.033-35.63,15.405-52.881,6.823-21.912,13.879-44.569,18.817-67.408,4.143-19.152,9.533-38.37,14.747-56.956,7.513-26.787,15.283-54.485,19.484-82.558,1.035-6.919,4.593-9.641,12.689-9.709,13.492-.116,26.961-1.2,39.505-2.359,7.413-.683,11.9-2.712,13.716-6.207,1.764-3.391.94-7.976-2.517-14.017"/>
    <path id="path5614" class="cls-2" d="M404.486-94.677a42.846,42.846,0,0,1-6.324-15.008,21.365,21.365,0,0,1-.527-7.286,8.91,8.91,0,0,1,1.072-3.247c.228-.389.609-1.132,1.048-1.313.493-.206,1.061.708,1.34,1.04a25.969,25.969,0,0,1,4.523,7.9.839.839,0,0,0,.913.58.839.839,0,0,0,.726-.8,13.261,13.261,0,0,1,2.657-7.479c.847-.987,2.2-2.132,3.577-2.126s2.268,1.463,2.739,2.6c2.579,6.209.277,13.286-3.156,18.657a69.715,69.715,0,0,1-7.147,8.939l1.424.589c-.028-.349-.057-.7-.085-1.051-.088-1.063-1.757-1.07-1.669,0,.029.351.057.7.087,1.051a.845.845,0,0,0,.521.756.845.845,0,0,0,.9-.165c5.039-5.592,10.209-11.712,11.531-19.366a17.533,17.533,0,0,0-1.175-10.707,4.9,4.9,0,0,0-3.547-2.934,5.944,5.944,0,0,0-4.383,1.768c-2.657,2.34-3.651,6.071-3.947,9.471q.82-.112,1.639-.221a28.345,28.345,0,0,0-4.421-7.992c-.8-1.013-1.892-2.61-3.4-2.174-1.221.349-2.076,1.889-2.557,2.968a14.932,14.932,0,0,0-.8,8,41.625,41.625,0,0,0,2.223,8.973,44.524,44.524,0,0,0,4.78,9.425c.593.888,2.04.055,1.441-.843"/>
    <path id="path5616" class="cls-2" d="M455.083-122.612a30.306,30.306,0,0,1-9.036-14.475,26.585,26.585,0,0,1-1.081-8.415c.052-.988.248-2.36,1.188-2.916,1.257-.745,2.639.584,3.388,1.481a24.573,24.573,0,0,1,4.567,9.411.838.838,0,0,0,.913.585.838.838,0,0,0,.726-.806,10.271,10.271,0,0,1,2.173-7.212c.66-.745,1.824-1.7,2.9-1.285,1.043.4,1.563,1.911,1.8,2.9.6,2.483-.144,5.113-1.053,7.425a67.62,67.62,0,0,1-3.707,7.5q-2.368,4.344-5.053,8.505c-.583.906.861,1.744,1.441.843q2.788-4.326,5.243-8.855a58.42,58.42,0,0,0,4.055-8.545c.943-2.729,1.419-5.819.267-8.561a4.494,4.494,0,0,0-2.732-2.879,4.152,4.152,0,0,0-3.563,1.036c-2.576,2.081-3.617,5.94-3.436,9.125l1.639-.221a27.569,27.569,0,0,0-4.589-9.635,6.077,6.077,0,0,0-3.807-2.663,3.313,3.313,0,0,0-3.352,1.879,8.58,8.58,0,0,0-.679,4.091,31.353,31.353,0,0,0,.521,4.955,31.993,31.993,0,0,0,3.269,9.26,31.368,31.368,0,0,0,6.821,8.649c.8.709,1.985-.467,1.18-1.18"/>
    <path id="path5618" class="cls-2" d="M439.458-87.069c-3.78-2.669-5.459-7.255-6.191-11.649-.207-1.245-.343-2.5-.452-3.755a29.828,29.828,0,0,1-.217-3.713,3.165,3.165,0,0,1,1.3-2.745c.969-.54,2.085.13,2.848.74a9.167,9.167,0,0,1,3.347,6.087l1.64-.223c-.456-2.525.107-5.863,2.223-7.557,2.385-1.912,4.512.949,5.108,3.093,1.488,5.349-1.8,11.083-4.9,15.2a85.664,85.664,0,0,1-6.2,7.075c-.736.781.443,1.964,1.18,1.18,4.428-4.7,9.048-9.658,11.088-15.929a13.176,13.176,0,0,0-.016-9.248c-1.143-2.637-4.072-4.829-6.864-2.986-3.019,1.991-3.828,6.285-3.227,9.615.165.913,1.741.716,1.639-.221a10.956,10.956,0,0,0-3.276-6.773,6.367,6.367,0,0,0-3.309-1.874,3.392,3.392,0,0,0-3.212,1.356,5.822,5.822,0,0,0-1.036,3.719c.02,1.539.193,3.093.359,4.621a30.115,30.115,0,0,0,1.981,8.537,15.811,15.811,0,0,0,5.351,6.892c.879.621,1.713-.825.843-1.441"/>
    <path id="path5620" class="cls-2" d="M424.046-139.82a69.486,69.486,0,0,1-7.6-14.693c-.483-1.3-.932-2.607-1.329-3.932a7.116,7.116,0,0,1-.352-4.088,2.607,2.607,0,0,1,2-1.939c1.144-.12,2.107.8,2.775,1.611a18.5,18.5,0,0,1,2.175,3.659,29.557,29.557,0,0,1,1.735,4.479c.215.719,1.488.865,1.608,0a15.435,15.435,0,0,1,2.928-7.179,6.864,6.864,0,0,1,2.717-2.4,1.755,1.755,0,0,1,1.449-.065,2.374,2.374,0,0,1,.928,1.535c1.648,5.447-1.061,11.1-3.7,15.752-1.7,3.005-3.516,5.953-5.364,8.872-.576.909.868,1.748,1.441.843,1.871-2.953,3.7-5.937,5.424-8.98a35.474,35.474,0,0,0,3.837-8.953c.7-2.877.867-6.236-.4-8.993a3,3,0,0,0-3.211-1.831,6,6,0,0,0-3.415,1.987,16.649,16.649,0,0,0-4.24,8.967h1.608a27.074,27.074,0,0,0-3.945-8.373c-1.527-2.044-4.183-3.641-6.492-1.72-2.464,2.051-1.691,5.476-.849,8.113a71.516,71.516,0,0,0,3.485,8.82,70.62,70.62,0,0,0,5.345,9.349c.6.885,2.044.051,1.44-.841"/>
    <path id="path5622" class="cls-2" d="M391.318-133.518a34.042,34.042,0,0,0,7.655-9.193,30.672,30.672,0,0,0,4-11.393,4.718,4.718,0,0,0-.736-3.431,3.015,3.015,0,0,0-2.729-1.281c-1.049.135-1.063,1.8,0,1.669,1.2-.156,1.8,1,1.847,2.045a12.383,12.383,0,0,1-.573,3.507,32,32,0,0,1-2.357,6.369,32.843,32.843,0,0,1-8.284,10.529c-.824.691.361,1.867,1.18,1.179"/>
    <path id="path5624" class="cls-2" d="M450.092-172.769a72.877,72.877,0,0,0,9.317,11.047c.852.825,1.724,1.637,2.621,2.415.772.668,1.8,1.347,2.836.811a2.578,2.578,0,0,0,1.1-2.345c.068-1.317.069-2.643.06-3.963q-.028-4.578-.507-9.135c-.109-1.059-1.779-1.069-1.668,0q.358,3.464.468,6.951.05,1.706.037,3.415a16.925,16.925,0,0,1-.1,3.207c-.085.415-.215.453-.587.235a8.038,8.038,0,0,1-1.2-1.008q-1.188-1.07-2.327-2.191-2.234-2.2-4.268-4.591a70.241,70.241,0,0,1-4.348-5.689c-.6-.879-2.052-.045-1.441.843"/>
    <path id="path5626" class="cls-2" d="M473.567-95.028a5.873,5.873,0,0,1,3.337-5.509,2.568,2.568,0,0,1,3.156.652,13.39,13.39,0,0,1,1.815,3.092,19.71,19.71,0,0,1,.769,14.224c-.9,2.733-2.74,5.211-2.679,8.195a.835.835,0,0,0,.834.794.835.835,0,0,0,.834-.794,9.928,9.928,0,0,1,1.187-4.332,29.9,29.9,0,0,0,1.6-3.953,21.04,21.04,0,0,0,.745-8.2,21.324,21.324,0,0,0-2.453-7.972,8.046,8.046,0,0,0-2.46-3.093,4.3,4.3,0,0,0-3.892-.18,7.532,7.532,0,0,0-4.463,7.081.835.835,0,0,0,.834.807.835.835,0,0,0,.835-.807"/>
    <path id="path5628" class="cls-2" d="M497.668-103.8c-3.337-3.383-6.7-6.833-9.2-10.9a23.974,23.974,0,0,1-2.783-6.264,7.319,7.319,0,0,1-.377-3.8,1.866,1.866,0,0,1,.821-1.1,1.4,1.4,0,0,1,1.611.34,28.744,28.744,0,0,1,5.791,6.324.846.846,0,0,0,.827.389.846.846,0,0,0,.7-.589,7.958,7.958,0,0,0,.08-3.1,9.95,9.95,0,0,1-.189-2.957,1.635,1.635,0,0,1,.634-1.085,1.635,1.635,0,0,1,1.217-.315,2.969,2.969,0,0,1,2.245,1.659,8.921,8.921,0,0,1,.813,3.407c.123,1.313.188,2.633.2,3.953a45.74,45.74,0,0,1-.669,8.173,47.045,47.045,0,0,1-2.464,8.849c-.387,1,1.225,1.436,1.608.442a47.649,47.649,0,0,0,3.181-18.23c-.063-2.643-.017-5.954-1.7-8.159-1.389-1.824-4.409-2.567-6-.575-1.756,2.195.088,5.06-.564,7.5l1.525-.2a33.533,33.533,0,0,0-5.867-6.511c-1.045-.879-2.308-1.508-3.644-.843a3.737,3.737,0,0,0-1.923,3.144,11.822,11.822,0,0,0,.657,4.165,24.477,24.477,0,0,0,1.491,3.8,35.74,35.74,0,0,0,4.485,6.81c1.963,2.415,4.135,4.649,6.319,6.863.756.766,1.936-.413,1.18-1.18"/>
    <path id="path5630" class="cls-2" d="M526.791-106.18a8.81,8.81,0,0,1-4.331-3.644,35.934,35.934,0,0,1-3.095-5.488,37.728,37.728,0,0,1-2.211-6.2c-.2-.745-.855-2.161.041-2.625a2.6,2.6,0,0,1,2.557.515c1.819,1.289,2.685,3.509,4.523,4.812.692.491,1.568-.461,1.141-1.141a1.586,1.586,0,0,1-.043-1.3,1.586,1.586,0,0,1,.95-.9c1.2-.442,2.451.693,2.839,1.741.371,1,1.984.567,1.609-.444-.727-1.96-2.873-3.672-5.047-2.848a3.258,3.258,0,0,0-1.919,1.9,3.258,3.258,0,0,0,.171,2.694l1.141-1.14c-1.917-1.359-2.759-3.745-4.8-5a4.29,4.29,0,0,0-3.212-.62,2.552,2.552,0,0,0-2.041,2.23,11.642,11.642,0,0,0,.783,3.643q.542,1.84,1.26,3.622a39.5,39.5,0,0,0,3.547,6.845c1.409,2.151,3.173,4.156,5.7,4.957,1.027.325,1.465-1.285.444-1.609"/>
    <path id="path5632" class="cls-2" d="M506.431-136.22a42.026,42.026,0,0,1-8.669-9.441,42.45,42.45,0,0,1-3.145-5.6c-.371-.8-1.229-2.165-.828-3.064s1.853-.964,2.667-.839c2.6.4,4.461,2.652,6.593,3.984.913.571,1.752-.872.841-1.441-2.211-1.38-4.029-3.471-6.656-4.083-2.147-.5-5.383.268-5.187,3.044a10.165,10.165,0,0,0,1.227,3.448q.784,1.66,1.711,3.248a43.761,43.761,0,0,0,4.285,6.075,42.749,42.749,0,0,0,5.981,5.847c.829.667,2.017-.507,1.18-1.18"/>
    <path id="path5634" class="cls-2" d="M508.3-134.861a49.269,49.269,0,0,0,2.519-11.079.839.839,0,0,0-.835-.835.854.854,0,0,0-.835.835A47.349,47.349,0,0,1,506.69-135.3c-.36,1.013,1.252,1.449,1.609.444"/>
  </g>
</svg>
